<!DOCTYPE svg PUBLIC "-//W3C//DTD SVG 20010904//EN" "http://www.w3.org/TR/2001/REC-SVG-20010904/DTD/svg10.dtd">
<svg version="1.0" xmlns="http://www.w3.org/2000/svg" width="994px" height="983px" viewBox="0 0 9940 9830" preserveAspectRatio="xMidYMid meet">
<g id="layer101" fill="#020402" stroke="none">
 <path d="M4760 9409 c-423 -17 -860 -99 -1255 -236 -1617 -561 -2778 -1986 -2995 -3678 -47 -368 -47 -782 0 -1150 260 -2025 1860 -3625 3885 -3885 372 -48 778 -48 1150 0 2025 260 3625 1860 3885 3885 62 483 43 989 -55 1471 -316 1554 -1439 2835 -2938 3353 -538 185 -1085 264 -1677 240z"/>
 </g>
<g id="layer102" fill="#26a653" stroke="none">
 <path d="M4760 9409 c-423 -17 -860 -99 -1255 -236 -1617 -561 -2778 -1986 -2995 -3678 -47 -368 -47 -782 0 -1150 260 -2025 1860 -3625 3885 -3885 372 -48 778 -48 1150 0 2025 260 3625 1860 3885 3885 62 483 43 989 -55 1471 -316 1554 -1439 2835 -2938 3353 -538 185 -1085 264 -1677 240z m2645 -1637 c322 -91 555 -333 619 -644 14 -69 16 -292 16 -2126 0 -1428 -3 -2066 -11 -2107 -50 -273 -244 -513 -500 -621 -162 -69 22 -64 -2604 -64 l-2376 0 -62 21 c-156 52 -270 174 -312 336 -29 112 -12 199 47 229 16 8 56 15 89 16 46 1 62 6 66 17 27 86 75 143 148 177 43 20 66 24 158 24 98 0 108 2 103 18 -3 9 -35 128 -72 264 -55 205 -65 250 -54 263 17 21 67 19 78 -2 5 -10 35 -112 67 -228 31 -115 63 -234 72 -262 l14 -53 380 0 c329 0 379 2 379 15 0 8 -22 168 -50 356 -27 188 -50 354 -50 370 0 26 22 49 47 49 37 0 43 -25 98 -404 30 -208 55 -381 55 -383 0 -2 172 -2 383 -1 l382 3 3 482 c2 480 2 482 23 494 16 8 28 8 45 0 l24 -10 2 -483 3 -483 374 -3 c206 -1 378 1 382 5 4 5 22 105 39 223 17 118 35 225 40 238 7 16 18 22 39 22 53 0 54 -18 21 -241 -16 -111 -30 -212 -30 -225 l0 -24 378 0 378 0 123 443 c67 243 128 449 136 456 20 21 69 3 73 -26 2 -12 -49 -210 -112 -440 -64 -231 -116 -423 -116 -426 0 -4 48 -7 108 -7 91 0 114 -4 158 -24 59 -27 118 -92 137 -150 l14 -41 62 -1 c105 -2 157 -61 147 -166 l-6 -58 160 0 c136 0 170 3 222 21 128 43 215 121 277 249 l36 75 3 2040 c3 1876 2 2045 -14 2103 -44 166 -199 303 -374 331 -83 14 -280 14 -280 1 0 -5 41 -240 91 -522 55 -310 89 -528 86 -550 -6 -48 -38 -91 -81 -112 -29 -13 -74 -16 -285 -16 l-251 0 0 -79 0 -78 45 -17 c134 -52 212 -261 171 -463 -16 -82 -53 -183 -88 -243 -61 -103 -101 -158 -124 -168 -44 -21 -91 -15 -124 16 -42 38 -124 181 -162 282 -31 80 -32 92 -32 220 0 116 3 143 22 191 30 75 80 132 142 158 l50 22 0 79 0 80 -436 0 -435 0 3 -42 3 -43 170 -86 c180 -92 203 -112 170 -149 -10 -11 -24 -20 -32 -20 -7 0 -76 32 -153 70 -77 39 -144 70 -150 70 -6 0 -10 -50 -10 -132 l1 -133 61 -30 c113 -55 163 -162 162 -350 0 -124 -16 -181 -85 -319 -80 -160 -122 -206 -187 -206 -65 0 -119 65 -202 242 -58 126 -73 194 -67 318 7 168 60 271 165 321 26 12 50 27 54 33 11 16 8 256 -3 256 -5 0 -72 -31 -149 -70 -77 -38 -148 -70 -158 -70 -41 0 -57 54 -24 82 9 9 89 52 178 96 l160 80 -2 34 c-1 18 -2 36 -3 41 0 4 -197 7 -436 7 l-435 0 0 -79 0 -78 44 -17 c87 -33 146 -114 172 -235 36 -172 -5 -345 -132 -549 -53 -84 -87 -107 -148 -99 -56 8 -92 51 -166 201 -67 136 -90 217 -90 323 0 185 74 323 196 363 l34 12 0 79 0 79 -441 0 -440 0 3 -42 3 -43 167 -85 c92 -47 173 -90 179 -97 7 -7 9 -22 5 -37 -12 -48 -42 -43 -195 33 -77 39 -145 71 -151 71 -6 0 -10 -50 -10 -133 l0 -132 59 -26 c103 -46 159 -152 168 -319 5 -78 2 -109 -16 -173 -40 -147 -147 -344 -201 -372 -87 -45 -149 5 -245 195 -97 191 -111 398 -38 545 33 68 67 100 130 127 l53 22 0 133 c0 83 -4 133 -10 133 -6 0 -74 -32 -151 -71 -102 -51 -148 -69 -165 -65 -29 8 -42 49 -23 72 7 9 89 54 181 100 l168 84 0 40 0 40 -440 0 -440 0 0 -77 0 -78 60 -28 c69 -32 107 -77 141 -166 29 -79 36 -224 15 -316 -26 -107 -140 -332 -190 -374 -25 -21 -89 -25 -124 -7 -60 31 -176 251 -208 395 -21 94 -14 222 16 302 33 89 71 134 140 166 l60 28 0 78 0 77 -252 0 c-221 0 -257 2 -288 18 -47 23 -80 75 -80 126 0 34 175 1053 196 1145 13 53 68 142 116 187 55 51 135 92 206 104 26 4 1127 7 2447 6 l2400 -1 80 -23z m-2807 -3244 c8 -8 12 -58 12 -159 0 -161 -4 -173 -57 -167 l-28 3 -3 155 c-1 85 0 160 2 167 7 16 58 17 74 1z m2097 -121 c13 -21 11 -35 -27 -175 -45 -165 -57 -185 -104 -163 -16 7 -24 19 -24 36 0 40 71 288 88 308 21 24 49 21 67 -6z m-4147 -149 c19 -24 120 -412 112 -433 -8 -24 -62 -33 -77 -13 -13 17 -113 381 -113 411 0 13 5 28 12 35 16 16 53 15 66 0z"/>
 <path d="M2450 7684 c-77 -27 -143 -86 -180 -159 -13 -27 -46 -189 -95 -465 -41 -233 -75 -428 -75 -432 0 -4 406 -8 903 -8 689 0 906 -3 915 -12 16 -16 15 -53 -2 -67 -10 -9 -250 -12 -920 -11 l-906 0 -10 -23 c-5 -12 -14 -51 -19 -86 -12 -76 -1 -105 46 -114 15 -3 1126 -6 2468 -6 1936 -1 2445 2 2465 12 17 9 26 22 28 44 5 50 -185 1109 -209 1162 -26 59 -80 115 -144 149 l-50 27 -2085 2 c-1866 2 -2090 1 -2130 -13z m2238 -1076 c16 -16 15 -53 -2 -67 -10 -8 -88 -12 -262 -12 -224 0 -250 2 -261 18 -17 22 -16 38 3 57 13 14 51 16 263 16 179 0 250 -3 259 -12z"/>
 <path d="M6860 7695 c0 -4 14 -23 31 -43 18 -20 43 -60 56 -89 l24 -53 153 0 c171 0 233 -12 336 -63 141 -70 263 -236 289 -394 9 -50 11 -614 9 -2093 -3 -1876 -5 -2029 -20 -2073 -52 -145 -152 -265 -274 -329 -105 -55 -172 -68 -366 -68 l-166 0 -28 -47 c-15 -26 -48 -70 -73 -96 l-46 -49 270 5 c291 5 326 10 452 67 208 94 362 281 421 508 16 62 17 206 17 2127 l0 2060 -23 79 c-71 246 -251 436 -490 517 l-97 33 -237 4 c-131 2 -238 1 -238 -3z"/>
 <path d="M2519 5910 c-24 -25 -44 -60 -54 -92 -20 -68 -19 -209 1 -279 19 -65 80 -190 125 -255 l32 -47 23 26 c37 43 101 167 130 252 51 150 31 321 -47 399 -24 24 -43 36 -49 30 -5 -5 -10 -49 -12 -98 -3 -80 -5 -90 -24 -97 -14 -5 -29 -2 -43 7 -19 14 -21 25 -21 105 0 61 -4 89 -12 89 -6 0 -28 -18 -49 -40z"/>
 <path d="M4470 5924 c-44 -38 -69 -93 -82 -184 -10 -66 -9 -90 5 -157 18 -84 85 -231 137 -302 l33 -45 22 26 c38 44 102 168 131 253 50 148 31 321 -46 397 -21 21 -43 38 -49 38 -7 0 -11 -30 -11 -88 0 -96 -7 -112 -51 -112 -35 0 -39 13 -39 116 0 46 -4 84 -9 84 -5 0 -24 -12 -41 -26z"/>
 <path d="M6412 5925 c-46 -39 -71 -93 -84 -185 -10 -66 -9 -90 5 -157 19 -85 98 -256 145 -313 l29 -34 38 59 c48 74 98 183 120 259 27 92 17 229 -21 303 -18 36 -41 64 -62 76 l-32 19 0 -91 c0 -85 -2 -92 -24 -106 -19 -13 -29 -14 -45 -5 -25 13 -30 33 -33 129 l-3 74 -33 -28z"/>
 <path d="M3500 5614 c-42 -36 -67 -89 -80 -170 -14 -87 -6 -157 31 -259 40 -109 118 -240 144 -240 40 0 152 227 175 353 13 71 2 172 -26 242 -15 38 -74 100 -94 100 -6 0 -10 -38 -10 -88 0 -93 -8 -112 -45 -112 -37 0 -45 19 -45 112 0 48 -4 88 -9 88 -5 0 -24 -12 -41 -26z"/>
 <path d="M5441 5614 c-42 -35 -67 -85 -81 -165 -22 -120 15 -267 106 -423 52 -88 69 -100 95 -65 35 46 107 195 128 263 43 139 20 307 -51 378 -21 21 -42 38 -48 38 -6 0 -10 -36 -10 -89 0 -98 -9 -115 -57 -109 l-28 3 -3 90 c-2 49 -7 94 -11 98 -4 4 -22 -4 -40 -19z"/>
 <path d="M2562 2919 c-44 -22 -82 -65 -82 -93 0 -14 187 -16 2085 -16 1836 0 2085 2 2085 15 0 26 -70 94 -108 105 -25 6 -700 10 -1987 10 l-1950 0 -43 -21z"/>
 <path d="M2263 2704 c-3 -8 -3 -41 0 -73 11 -121 113 -254 235 -303 l57 -23 2010 0 2010 0 57 23 c79 32 160 108 198 186 35 71 50 167 30 191 -11 13 -266 15 -2302 15 -2069 0 -2289 -2 -2295 -16z"/>
 </g>

</svg>