<!DOCTYPE svg PUBLIC "-//W3C//DTD SVG 20010904//EN" "http://www.w3.org/TR/2001/REC-SVG-20010904/DTD/svg10.dtd">
<svg version="1.0" xmlns="http://www.w3.org/2000/svg" width="1080px" height="1080px" viewBox="0 0 10800 10800" preserveAspectRatio="xMidYMid meet">
<g id="layer101" fill="#1e231e" stroke="none">
 <path d="M5190 9889 c-423 -17 -860 -99 -1255 -236 -1617 -561 -2778 -1986 -2995 -3678 -47 -368 -47 -782 0 -1150 260 -2025 1860 -3625 3885 -3885 372 -48 778 -48 1150 0 2025 260 3625 1860 3885 3885 62 483 43 989 -55 1471 -316 1554 -1439 2835 -2938 3353 -538 185 -1085 264 -1677 240z"/>
 </g>
<g id="layer102" fill="#26a553" stroke="none">
 <path d="M5190 9889 c-423 -17 -860 -99 -1255 -236 -1617 -561 -2778 -1986 -2995 -3678 -47 -368 -47 -782 0 -1150 260 -2025 1860 -3625 3885 -3885 372 -48 778 -48 1150 0 2025 260 3625 1860 3885 3885 62 483 43 989 -55 1471 -316 1554 -1439 2835 -2938 3353 -538 185 -1085 264 -1677 240z m1813 -1136 c10 -114 36 -380 47 -473 6 -52 13 -115 14 -140 2 -25 9 -97 15 -160 16 -165 18 -184 30 -295 6 -55 18 -170 26 -255 8 -85 20 -198 25 -250 6 -52 13 -117 15 -145 3 -27 9 -95 15 -150 6 -55 16 -167 24 -250 8 -82 20 -195 26 -250 7 -55 14 -118 15 -140 4 -40 13 -132 40 -405 8 -80 20 -206 26 -280 7 -74 16 -141 22 -147 7 -10 72 -13 263 -13 l254 0 2 -92 c3 -173 -14 -278 -61 -380 -28 -61 -94 -154 -136 -191 -45 -41 -125 -87 -186 -108 -62 -21 -76 -22 -579 -24 -627 -4 -590 -3 -590 -15 0 -6 17 -29 38 -51 75 -81 133 -186 182 -329 20 -59 50 -209 50 -252 0 -23 -84 -47 -215 -62 -397 -45 -648 169 -740 632 -6 34 -15 65 -18 69 -13 12 -99 7 -107 -7 -5 -8 -9 -106 -9 -218 l0 -204 96 -107 c204 -225 341 -450 417 -683 98 -298 84 -617 -37 -893 -69 -157 -128 -259 -247 -425 -46 -64 -239 -275 -259 -284 -31 -14 -261 245 -372 419 -111 174 -156 276 -229 520 -18 61 -32 242 -25 340 24 349 202 713 510 1039 l65 69 0 214 c0 207 -1 214 -21 221 -11 5 -37 7 -57 7 -41 -2 -38 3 -77 -162 -43 -190 -163 -385 -283 -462 -119 -76 -298 -107 -473 -82 -74 10 -166 36 -181 50 -4 3 -3 24 2 46 4 22 16 74 25 115 39 180 118 342 209 429 47 45 46 61 -1 62 -21 0 -267 2 -548 3 -549 3 -532 1 -655 59 -79 37 -186 139 -223 214 -66 129 -69 145 -74 340 l-5 183 258 2 259 3 7 65 c8 83 16 158 29 290 5 58 17 170 25 250 8 80 21 215 29 300 8 85 19 196 25 245 10 87 23 218 54 550 9 88 20 198 26 245 6 47 17 155 25 240 8 85 21 223 29 305 9 83 22 220 30 305 9 85 20 193 26 240 5 47 15 144 20 215 6 72 13 136 15 143 3 9 322 12 1549 12 l1544 0 5 -57z"/>
 <path d="M3996 8704 c-9 -8 -16 -21 -16 -27 0 -7 -7 -82 -16 -167 -8 -85 -21 -225 -29 -310 -8 -85 -19 -195 -25 -245 -6 -49 -18 -160 -25 -245 -15 -152 -33 -337 -55 -555 -6 -60 -13 -128 -15 -150 -2 -22 -8 -83 -14 -135 -6 -52 -15 -151 -21 -220 -6 -69 -12 -136 -15 -150 -3 -14 -12 -99 -20 -190 -8 -91 -20 -203 -25 -250 -5 -47 -16 -155 -24 -240 -23 -234 -36 -354 -41 -368 -3 -7 0 -22 5 -33 11 -19 41 -19 1798 -17 l1787 3 -1 35 c-2 40 -30 331 -44 460 -5 47 -16 157 -24 245 -8 88 -18 174 -21 190 -3 17 -10 89 -16 160 -6 72 -15 164 -20 205 -4 41 -15 145 -23 230 -8 85 -20 205 -26 265 -6 61 -13 126 -14 145 -2 19 -8 82 -14 140 -6 58 -14 132 -16 165 -3 33 -10 101 -16 150 -6 50 -17 160 -25 245 -14 151 -34 352 -55 555 -7 74 -14 103 -27 113 -13 10 -316 12 -1454 12 -1288 0 -1439 -2 -1453 -16z m1615 -378 c51 -7 175 -40 239 -65 217 -84 415 -246 565 -461 48 -68 140 -253 150 -300 4 -19 11 -39 15 -45 8 -11 18 -52 47 -180 27 -125 25 -389 -5 -523 -57 -253 -151 -450 -307 -637 -41 -49 -220 -205 -235 -205 -5 0 -15 -6 -22 -13 -32 -32 -212 -119 -283 -138 -16 -4 -59 -16 -95 -25 -93 -25 -370 -25 -455 0 -33 10 -74 21 -90 25 -189 48 -425 208 -570 386 -120 148 -232 371 -267 530 -42 192 -53 326 -38 463 16 151 58 338 82 367 4 5 8 17 8 26 0 19 94 205 131 259 134 196 309 351 485 431 129 58 149 66 229 82 44 9 100 21 125 27 42 8 208 6 291 -4z"/>
 <path d="M5315 8230 c-212 -29 -428 -134 -583 -284 -254 -243 -384 -554 -384 -920 0 -210 36 -379 115 -549 150 -319 394 -533 722 -634 84 -25 102 -27 265 -27 168 0 179 1 279 32 322 99 573 323 714 638 83 184 112 322 111 539 0 233 -34 382 -131 580 -144 295 -417 523 -716 600 -109 28 -289 40 -392 25z"/>
 <path d="M3134 5296 c-8 -21 2 -184 14 -239 29 -124 127 -251 235 -306 46 -23 88 -36 143 -42 48 -6 837 -9 1989 -7 l1910 3 77 37 c86 43 173 128 214 211 35 72 55 180 52 272 l-3 80 -2313 3 c-1986 2 -2313 0 -2318 -12z"/>
 <path d="M4967 4604 c-1 -1 -31 -4 -67 -8 -64 -5 -116 -16 -155 -32 -34 -13 -118 -79 -157 -122 -48 -53 -125 -214 -149 -311 -30 -120 -31 -117 53 -131 212 -36 386 5 496 118 86 88 140 190 181 345 26 97 26 106 -2 116 -21 8 -194 30 -200 25z"/>
 <path d="M5781 4590 c-29 -5 -57 -12 -62 -17 -9 -9 8 -130 21 -148 4 -5 10 -23 14 -38 12 -49 63 -151 101 -202 74 -99 128 -139 238 -175 90 -30 284 -30 364 1 22 8 24 12 18 56 -10 69 -51 187 -92 265 -74 141 -196 236 -331 259 -66 10 -193 10 -271 -1z"/>
 <path d="M5320 3928 c-39 -46 -91 -114 -117 -153 -25 -38 -55 -83 -65 -98 -30 -44 -136 -259 -144 -292 -4 -16 -10 -34 -14 -40 -6 -9 -23 -74 -50 -197 -12 -58 -13 -278 -1 -327 5 -20 17 -70 26 -111 9 -41 21 -84 26 -95 4 -11 18 -44 29 -73 62 -162 219 -411 333 -529 36 -37 53 -49 59 -40 11 18 10 2025 -2 2032 -5 3 -41 -32 -80 -77z"/>
 <path d="M5497 3993 c-4 -3 -7 -460 -7 -1014 0 -752 3 -1010 12 -1015 21 -13 159 158 259 321 105 169 173 337 204 496 19 98 16 333 -4 429 -45 208 -178 469 -341 670 -41 51 -80 98 -86 106 -12 15 -27 18 -37 7z"/>
 </g>
<g id="layer103" fill="#72b489" stroke="none">
 <path d="M4604 7978 l-29 -33 33 29 c30 28 37 36 29 36 -2 0 -16 -15 -33 -32z"/>
 <path d="M4615 7803 l-17 -28 23 22 c12 12 20 25 17 28 -3 3 -13 -7 -23 -22z"/>
 <path d="M6334 6118 l-29 -33 33 29 c30 28 37 36 29 36 -2 0 -16 -15 -33 -32z"/>
 <path d="M4600 6077 c0 -2 15 -16 33 -33 l32 -29 -29 33 c-28 30 -36 37 -36 29z"/>
 <path d="M6265 6050 c-16 -16 -24 -30 -19 -30 6 0 20 14 32 30 13 17 21 30 19 30 -2 0 -16 -13 -32 -30z"/>
 <path d="M7635 4870 c-16 -16 -26 -32 -23 -35 3 -3 17 10 32 30 33 43 29 45 -9 5z"/>
 <path d="M3280 4845 c19 -19 36 -35 39 -35 3 0 -10 16 -29 35 -19 19 -36 35 -39 35 -3 0 10 -16 29 -35z"/>
 <path d="M4533 4583 c11 -3 16 -11 13 -19 -4 -11 0 -11 19 2 33 22 32 24 -12 23 -21 -1 -30 -3 -20 -6z"/>
 <path d="M5295 4579 c-11 -17 -2 -18 19 -3 17 12 17 14 4 14 -9 0 -20 -5 -23 -11z"/>
 <path d="M6316 4582 c5 -4 22 -18 38 -32 l29 -25 -17 27 c-17 26 -17 27 6 31 13 2 3 5 -21 6 -25 0 -41 -2 -35 -7z"/>
 <path d="M5720 4554 c0 -14 3 -14 15 -4 8 7 15 14 15 16 0 2 -7 4 -15 4 -8 0 -15 -7 -15 -16z"/>
 <path d="M6450 4035 c-10 -12 -10 -15 4 -15 9 0 16 7 16 15 0 8 -2 15 -4 15 -2 0 -9 -7 -16 -15z"/>
 <path d="M5356 3952 l-29 -37 30 28 c16 15 32 24 36 20 4 -3 7 1 7 10 0 26 -12 20 -44 -21z"/>
 <path d="M5531 2009 c-13 -11 -22 -22 -19 -24 2 -3 15 6 28 20 28 30 24 32 -9 4z"/>
 <path d="M5376 1989 c20 -23 24 -23 24 -5 0 7 -9 16 -21 19 -20 5 -20 5 -3 -14z"/>
 </g>

</svg>