<!DOCTYPE svg PUBLIC "-//W3C//DTD SVG 20010904//EN" "http://www.w3.org/TR/2001/REC-SVG-20010904/DTD/svg10.dtd">
<svg version="1.0" xmlns="http://www.w3.org/2000/svg" width="300px" height="300px" viewBox="0 0 3000 3000" preserveAspectRatio="xMidYMid meet">
<g id="layer101" fill="#000000" stroke="none">
 <path d="M1808 2671 c-114 -41 -217 -116 -368 -270 -315 -320 -592 -770 -734 -1195 -73 -217 -101 -401 -76 -507 28 -119 123 -252 259 -361 96 -77 173 -117 240 -125 46 -5 51 -4 93 35 102 94 268 509 268 671 0 38 -5 49 -42 86 -39 39 -52 44 -143 65 -55 13 -104 27 -110 31 -32 30 97 354 213 534 46 72 156 206 235 287 38 40 83 67 91 56 129 -176 179 -217 251 -204 112 21 454 396 500 550 23 75 -12 136 -117 207 -190 129 -425 188 -560 140z m243 -120 c94 -24 232 -91 290 -141 l44 -38 -16 -33 c-52 -108 -272 -361 -369 -425 l-42 -28 -37 41 c-20 22 -58 66 -85 98 -81 94 -120 99 -218 28 -84 -61 -238 -244 -335 -398 -77 -122 -179 -369 -203 -491 -14 -71 1 -126 41 -156 14 -11 75 -32 135 -47 l109 -27 3 -36 c7 -78 -106 -393 -184 -515 -40 -63 -57 -66 -129 -24 -122 72 -245 197 -291 296 -97 207 96 769 433 1264 227 334 490 592 653 642 45 13 125 9 201 -10z"/>
 </g>

</svg>