<!DOCTYPE svg PUBLIC "-//W3C//DTD SVG 20010904//EN" "http://www.w3.org/TR/2001/REC-SVG-20010904/DTD/svg10.dtd">
<svg version="1.0" xmlns="http://www.w3.org/2000/svg" width="300px" height="300px" viewBox="0 0 3000 3000" preserveAspectRatio="xMidYMid meet">
<g id="layer101" fill="#000000" stroke="none">
 <path d="M1424 2678 c-322 -387 -632 -895 -737 -1208 -54 -161 -61 -199 -60 -340 0 -137 7 -178 52 -304 93 -265 347 -490 626 -557 78 -18 303 -19 370 0 143 39 242 88 354 177 136 109 252 288 303 469 30 107 32 315 4 420 -83 315 -304 718 -641 1170 -114 153 -191 245 -204 245 -3 0 -34 -33 -67 -72z m171 -250 c376 -504 602 -931 637 -1204 38 -298 -120 -608 -385 -756 -385 -213 -871 -45 -1041 360 -73 174 -81 374 -21 557 66 204 205 470 388 745 84 126 309 430 318 430 3 0 50 -59 104 -132z"/>
 <path d="M1380 1464 c-126 -44 -211 -160 -218 -301 -10 -180 95 -319 267 -354 112 -24 227 16 307 104 63 70 87 142 82 242 -6 99 -38 169 -110 237 -86 82 -216 110 -328 72z m166 -119 c122 -36 185 -168 135 -281 -28 -61 -55 -92 -106 -115 -71 -33 -175 -19 -228 29 -53 48 -76 146 -53 224 24 79 69 124 143 144 61 16 52 16 109 -1z"/>
 </g>

</svg>