<!DOCTYPE svg PUBLIC "-//W3C//DTD SVG 20010904//EN" "http://www.w3.org/TR/2001/REC-SVG-20010904/DTD/svg10.dtd">
<svg version="1.0" xmlns="http://www.w3.org/2000/svg" width="1080px" height="1080px" viewBox="0 0 10800 10800" preserveAspectRatio="xMidYMid meet">
<g id="layer101" fill="#000000" stroke="none">
 <path d="M5190 9889 c-423 -17 -860 -99 -1255 -236 -1617 -561 -2778 -1986 -2995 -3678 -47 -368 -47 -782 0 -1150 260 -2025 1860 -3625 3885 -3885 372 -48 778 -48 1150 0 2025 260 3625 1860 3885 3885 62 483 43 989 -55 1471 -316 1554 -1439 2835 -2938 3353 -538 185 -1085 264 -1677 240z m700 -243 c515 -66 950 -194 1395 -412 1228 -601 2109 -1785 2329 -3129 43 -265 51 -374 51 -705 0 -406 -27 -653 -111 -1000 -397 -1658 -1757 -2927 -3444 -3214 -444 -76 -986 -76 -1430 0 -850 145 -1637 545 -2258 1148 -721 700 -1160 1604 -1274 2621 -18 161 -18 719 0 880 140 1252 773 2333 1791 3057 582 414 1319 691 2021 757 63 6 131 13 150 15 88 10 662 -4 780 -18z"/>
 <path d="M6305 7946 c-153 -23 -418 -97 -540 -151 -16 -8 -64 -28 -105 -46 -253 -108 -557 -274 -768 -421 -45 -32 -85 -58 -87 -58 -9 0 -332 -250 -374 -290 -15 -14 -58 -52 -96 -85 -143 -122 -386 -375 -535 -555 -34 -41 -70 -85 -81 -98 -81 -95 -285 -383 -365 -515 -147 -243 -245 -432 -327 -637 -60 -147 -127 -344 -132 -385 -1 -5 -4 -17 -7 -25 -4 -8 -12 -44 -18 -80 -7 -36 -14 -76 -17 -90 -2 -14 -6 -104 -9 -200 -5 -184 2 -236 47 -359 24 -66 78 -160 127 -221 75 -95 449 -462 514 -506 121 -81 259 -110 378 -80 80 20 152 55 211 100 53 42 589 573 672 666 60 67 137 205 137 245 0 12 5 37 11 55 23 64 -25 239 -92 336 -16 23 -117 130 -225 238 -169 167 -195 198 -184 211 7 8 10 15 7 15 -11 0 100 188 166 283 78 111 145 195 240 302 122 136 381 387 447 432 14 9 27 19 30 22 41 46 273 203 384 260 l100 51 210 -209 c187 -184 220 -212 286 -245 97 -47 109 -50 210 -50 99 -1 120 3 197 39 105 48 102 45 654 605 89 91 180 192 201 224 110 170 102 387 -20 556 -21 29 -190 205 -439 456 -87 87 -198 153 -328 194 -89 28 -341 36 -480 16z m365 -276 c63 -14 117 -38 171 -76 60 -42 466 -454 495 -502 47 -79 39 -164 -22 -239 -75 -92 -675 -681 -711 -699 -47 -22 -119 -22 -164 1 -19 10 -140 122 -269 250 -225 222 -237 233 -288 245 -30 7 -71 9 -94 6 -52 -8 -316 -150 -438 -235 -373 -259 -759 -650 -1003 -1013 -72 -108 -202 -348 -205 -379 0 -8 -4 -33 -8 -55 -13 -82 1 -101 251 -354 139 -140 242 -252 255 -278 35 -67 25 -135 -28 -204 -22 -29 -186 -197 -364 -374 -301 -298 -327 -321 -379 -339 -53 -17 -57 -17 -110 0 -49 16 -75 38 -287 249 -129 127 -246 249 -261 271 -100 147 -116 370 -46 660 21 89 83 277 96 290 5 5 9 17 9 26 0 21 48 133 133 309 201 415 572 920 941 1284 227 222 461 413 721 586 90 61 166 110 168 110 3 0 47 25 98 56 88 53 300 163 379 197 19 8 71 31 115 50 170 75 378 135 530 153 28 3 52 8 54 10 9 8 218 3 261 -6z"/>
 <path d="M6824 5291 c-40 -18 -72 -68 -79 -126 -4 -30 -11 -58 -16 -61 -5 -3 -7 -9 -4 -14 5 -9 -34 -137 -62 -200 -53 -123 -126 -247 -178 -306 -5 -7 -28 -35 -50 -63 -165 -212 -488 -403 -787 -466 -84 -18 -118 -39 -142 -87 -20 -40 -20 -74 2 -118 24 -48 75 -80 126 -79 36 0 123 13 151 22 6 2 30 9 55 16 25 7 52 15 60 18 8 3 20 7 25 9 50 14 141 53 222 95 54 29 108 57 120 63 13 6 23 14 23 19 0 4 6 7 14 7 8 0 16 3 18 8 2 4 26 24 53 45 157 119 229 191 365 367 27 36 50 69 50 74 0 5 6 17 14 25 42 49 152 291 181 400 37 132 44 173 45 227 0 43 -5 56 -33 89 -31 35 -38 39 -93 42 -32 1 -68 -1 -80 -6z"/>
 <path d="M7749 5244 c-35 -22 -68 -73 -74 -114 -16 -109 -78 -345 -96 -366 -5 -7 -9 -16 -7 -20 3 -11 -20 -80 -38 -114 -20 -40 -64 -138 -64 -145 0 -12 -118 -220 -163 -287 -68 -100 -159 -217 -216 -275 -28 -29 -51 -55 -51 -58 0 -23 -305 -288 -391 -340 -10 -5 -59 -37 -111 -69 -91 -58 -251 -144 -334 -179 -147 -62 -467 -157 -528 -157 -11 0 -40 -10 -64 -21 -34 -17 -48 -31 -63 -66 -24 -56 -24 -63 2 -119 26 -55 88 -90 142 -80 17 3 43 8 56 10 54 10 180 39 226 53 83 25 229 73 250 83 11 5 54 23 95 40 108 45 329 162 418 222 421 283 758 659 970 1084 125 249 235 596 249 779 3 48 0 66 -17 93 -35 57 -134 81 -191 46z"/>
 </g>

</svg>