<!DOCTYPE svg PUBLIC "-//W3C//DTD SVG 20010904//EN" "http://www.w3.org/TR/2001/REC-SVG-20010904/DTD/svg10.dtd">
<svg version="1.0" xmlns="http://www.w3.org/2000/svg" width="1080px" height="1080px" viewBox="0 0 10800 10800" preserveAspectRatio="xMidYMid meet">
<g id="layer101" fill="#000000" stroke="none">
 <path d="M5190 9889 c-423 -17 -860 -99 -1255 -236 -1617 -561 -2778 -1986 -2995 -3678 -47 -368 -47 -782 0 -1150 260 -2025 1860 -3625 3885 -3885 372 -48 778 -48 1150 0 2025 260 3625 1860 3885 3885 62 483 43 989 -55 1471 -316 1554 -1439 2835 -2938 3353 -538 185 -1085 264 -1677 240z m700 -243 c515 -66 950 -194 1395 -412 1228 -601 2109 -1785 2329 -3129 43 -265 51 -374 51 -705 0 -406 -27 -653 -111 -1000 -397 -1658 -1757 -2927 -3444 -3214 -444 -76 -986 -76 -1430 0 -850 145 -1637 545 -2258 1148 -721 700 -1160 1604 -1274 2621 -18 161 -18 719 0 880 140 1252 773 2333 1791 3057 582 414 1319 691 2021 757 63 6 131 13 150 15 88 10 662 -4 780 -18z"/>
 <path d="M4954 7376 c-63 -29 -128 -75 -414 -291 -176 -133 -530 -425 -756 -625 -205 -180 -579 -569 -622 -646 -6 -10 -13 -17 -15 -14 -3 3 -29 84 -57 180 -29 96 -57 183 -62 193 -15 29 -70 57 -113 57 -43 0 -196 -37 -415 -100 -74 -21 -207 -57 -295 -80 -146 -38 -256 -68 -437 -121 -37 -11 -81 -31 -98 -45 -25 -22 -30 -33 -30 -70 0 -24 4 -52 9 -62 11 -22 32 -92 132 -437 44 -154 130 -446 191 -650 60 -203 161 -543 224 -755 62 -212 119 -403 126 -425 8 -24 25 -47 44 -60 55 -37 101 -29 614 114 61 17 482 131 540 147 8 2 36 9 62 15 58 13 109 46 126 82 15 32 5 31 169 13 176 -20 404 -34 683 -42 l235 -6 100 -45 c318 -144 566 -168 940 -91 130 26 428 117 558 169 56 23 125 50 152 61 28 11 101 44 164 74 63 30 121 54 129 54 8 0 68 -16 133 -37 112 -34 119 -38 129 -68 19 -57 46 -71 220 -119 91 -24 172 -47 180 -50 8 -3 26 -7 40 -10 27 -5 85 -20 330 -86 85 -23 160 -43 165 -44 30 -8 83 -22 195 -54 180 -51 240 -43 255 32 7 34 30 108 190 626 104 338 181 586 392 1280 112 365 127 442 98 486 -23 35 -47 44 -331 119 -342 89 -603 159 -772 206 -160 44 -173 45 -221 21 -40 -20 -43 -26 -67 -112 -10 -36 -19 -68 -21 -72 -2 -4 -29 2 -61 13 -31 11 -92 23 -134 26 l-77 6 -17 51 c-29 91 -121 212 -202 266 -40 26 -117 54 -203 74 -23 5 -28 13 -38 66 -31 159 -129 282 -291 366 -53 28 -61 29 -187 29 -83 0 -133 4 -133 10 0 27 -62 136 -103 181 -98 108 -182 145 -332 145 -111 0 -258 -62 -366 -153 -27 -23 -51 -39 -53 -37 -1 2 -14 29 -28 59 -39 85 -83 137 -151 180 l-62 40 -145 0 c-143 -1 -146 -1 -216 -34z m257 -197 c73 -22 125 -104 109 -173 -13 -57 -36 -86 -197 -235 -167 -155 -183 -180 -160 -248 19 -57 64 -81 139 -74 9 0 34 16 56 34 22 17 58 47 81 66 23 18 89 72 146 120 430 356 473 389 533 407 47 14 57 14 109 -1 87 -25 143 -100 143 -190 0 -28 -44 -115 -58 -115 -4 0 -24 -15 -44 -33 -44 -38 -386 -302 -520 -400 -65 -48 -78 -70 -78 -131 0 -66 56 -116 130 -116 17 0 48 15 81 41 30 22 82 62 117 87 34 26 124 96 200 156 75 60 153 119 172 131 20 12 60 45 90 72 147 132 225 183 282 183 43 0 116 -29 152 -60 43 -37 76 -115 76 -178 0 -53 -1 -55 -64 -120 -36 -37 -95 -89 -131 -117 -36 -27 -124 -95 -194 -150 -71 -55 -144 -111 -162 -125 -135 -102 -227 -182 -233 -202 -25 -94 23 -158 117 -158 46 0 74 16 173 99 17 14 44 35 59 46 16 11 70 54 120 95 50 41 109 89 130 105 22 17 82 65 135 109 52 43 106 86 120 94 14 9 42 31 62 48 87 77 224 45 307 -71 30 -43 38 -115 18 -170 -14 -40 -82 -103 -242 -221 -70 -52 -252 -191 -465 -354 -82 -63 -208 -160 -280 -215 -223 -169 -384 -294 -400 -308 -8 -7 -31 -24 -50 -37 -19 -14 -74 -55 -122 -93 l-86 -68 -129 30 c-70 16 -150 32 -176 36 -40 5 -55 13 -85 48 -75 85 -239 244 -299 290 -129 98 -268 157 -372 157 -279 -1 -457 -261 -412 -602 14 -107 44 -194 109 -323 53 -106 165 -264 213 -303 45 -36 39 -54 -18 -48 -27 3 -113 8 -193 11 -138 5 -456 37 -529 53 -40 9 -24 -35 -196 552 -59 201 -140 476 -181 613 -41 136 -74 255 -74 265 0 24 63 125 139 224 100 128 482 504 694 681 40 34 122 104 183 155 60 51 114 96 119 100 6 4 55 43 110 87 56 44 114 90 130 102 17 12 85 64 151 116 133 102 291 213 327 227 31 12 73 12 118 -1z m3039 -1220 c135 -39 333 -96 440 -126 107 -31 198 -59 202 -62 7 -6 -23 -113 -172 -611 -168 -563 -381 -1288 -400 -1360 -22 -83 -18 -81 -117 -54 -49 14 -167 45 -263 70 -270 70 -544 146 -552 153 -8 7 4 51 115 426 36 121 81 274 100 340 20 66 76 257 125 425 76 255 162 554 238 818 8 28 20 52 27 52 7 0 122 -32 257 -71z m-5413 -11 c0 -7 36 -132 81 -278 44 -146 118 -386 162 -535 45 -148 138 -452 207 -675 69 -223 127 -415 129 -428 3 -13 12 -43 20 -68 8 -25 14 -47 12 -49 -5 -5 -153 -45 -258 -70 -52 -13 -167 -44 -255 -68 -88 -25 -207 -57 -266 -71 -58 -14 -113 -28 -122 -32 -10 -3 -19 -1 -21 7 -50 161 -168 555 -171 570 -4 22 -28 102 -115 384 -32 105 -106 348 -165 540 -59 193 -120 391 -135 440 -22 69 -26 93 -17 101 7 7 75 28 152 49 77 20 187 50 245 66 58 16 118 32 134 35 16 2 37 9 47 15 11 5 19 8 19 6 0 -2 62 13 138 34 151 41 179 45 179 27z m4795 -68 c21 -6 40 -15 43 -21 4 -5 -8 -55 -25 -112 -18 -56 -45 -145 -61 -197 -15 -52 -53 -174 -83 -270 -54 -175 -226 -748 -293 -975 -19 -66 -38 -131 -42 -145 -10 -31 -23 -30 -185 18 -174 51 -178 51 -391 -47 -188 -87 -460 -192 -629 -242 -140 -41 -381 -80 -501 -81 -170 0 -400 62 -525 142 -26 17 -52 30 -58 30 -17 0 -162 112 -224 174 -89 87 -155 180 -213 301 -69 140 -88 215 -89 335 0 78 4 105 23 147 31 70 49 84 118 90 45 4 69 0 107 -16 115 -50 268 -183 399 -346 44 -55 89 -105 101 -112 12 -7 50 -12 86 -12 72 1 154 -16 303 -62 121 -37 154 -34 230 24 30 23 98 76 152 117 148 114 242 187 356 274 57 44 163 125 234 181 72 56 177 137 235 181 58 43 110 84 116 89 7 6 112 87 235 180 239 182 337 268 375 328 l24 37 73 0 c39 0 89 -5 109 -10z"/>
 </g>

</svg>