<!DOCTYPE svg PUBLIC "-//W3C//DTD SVG 20010904//EN" "http://www.w3.org/TR/2001/REC-SVG-20010904/DTD/svg10.dtd">
<svg version="1.0" xmlns="http://www.w3.org/2000/svg" width="1080px" height="1080px" viewBox="0 0 10800 10800" preserveAspectRatio="xMidYMid meet">
<g id="layer101" fill="#000000" stroke="none">
 <path d="M5190 9889 c-423 -17 -860 -99 -1255 -236 -1617 -561 -2778 -1986 -2995 -3678 -47 -368 -47 -782 0 -1150 260 -2025 1860 -3625 3885 -3885 372 -48 778 -48 1150 0 2025 260 3625 1860 3885 3885 62 483 43 989 -55 1471 -316 1554 -1439 2835 -2938 3353 -538 185 -1085 264 -1677 240z m700 -243 c515 -66 950 -194 1395 -412 1228 -601 2109 -1785 2329 -3129 43 -265 51 -374 51 -705 0 -406 -27 -653 -111 -1000 -397 -1658 -1757 -2927 -3444 -3214 -444 -76 -986 -76 -1430 0 -850 145 -1637 545 -2258 1148 -721 700 -1160 1604 -1274 2621 -18 161 -18 719 0 880 140 1252 773 2333 1791 3057 582 414 1319 691 2021 757 63 6 131 13 150 15 88 10 662 -4 780 -18z"/>
 <path d="M4895 8349 c-22 -10 -46 -19 -53 -19 -19 0 -100 -79 -108 -104 -4 -11 -16 -28 -28 -38 -19 -16 -58 -17 -544 -18 -461 0 -527 -2 -560 -16 -20 -9 -61 -20 -90 -25 -30 -4 -62 -15 -71 -23 -10 -9 -33 -19 -52 -22 -19 -4 -41 -13 -49 -20 -8 -7 -26 -18 -40 -24 -37 -17 -84 -44 -101 -58 -7 -6 -43 -35 -79 -63 -36 -29 -81 -69 -101 -90 -60 -63 -184 -222 -197 -251 -6 -16 -16 -28 -21 -28 -5 0 -12 -13 -16 -30 -4 -16 -10 -32 -15 -35 -11 -7 -70 -125 -70 -140 0 -7 -9 -24 -20 -38 -11 -14 -20 -35 -20 -47 0 -12 -9 -33 -20 -47 -12 -15 -20 -41 -20 -63 0 -43 -11 -55 -60 -65 -19 -4 -45 -13 -57 -21 -12 -7 -40 -16 -62 -20 -22 -4 -48 -15 -57 -25 -9 -11 -25 -19 -35 -19 -10 0 -23 -9 -29 -20 -6 -11 -16 -20 -23 -20 -25 0 -177 -179 -177 -209 0 -6 -9 -25 -20 -43 -11 -18 -20 -46 -20 -63 0 -16 -7 -52 -15 -79 -22 -73 -22 -824 0 -886 8 -23 15 -59 15 -79 0 -20 9 -49 20 -66 11 -16 20 -36 20 -43 0 -36 179 -224 235 -248 19 -7 36 -18 39 -23 4 -5 21 -13 39 -16 38 -9 89 -33 99 -49 4 -6 8 -24 8 -41 0 -16 9 -72 20 -124 11 -52 20 -129 20 -171 0 -56 5 -87 20 -118 11 -23 20 -61 20 -89 0 -29 8 -63 20 -86 11 -20 20 -51 20 -67 0 -17 9 -48 20 -70 11 -22 20 -49 20 -61 0 -12 9 -36 19 -53 10 -17 22 -47 26 -66 4 -19 16 -46 26 -59 11 -13 19 -33 19 -43 0 -11 9 -31 20 -45 11 -14 20 -34 20 -44 0 -11 9 -28 20 -39 11 -11 20 -28 20 -38 0 -11 9 -27 20 -37 11 -10 20 -28 20 -40 0 -13 7 -28 15 -35 8 -7 29 -37 47 -68 17 -30 40 -64 50 -74 10 -10 18 -23 18 -28 0 -11 32 -59 60 -91 8 -9 23 -27 32 -40 125 -169 338 -382 516 -517 12 -9 30 -24 40 -33 9 -8 43 -32 74 -52 31 -21 60 -42 63 -47 3 -6 14 -10 23 -10 10 0 25 -9 35 -20 9 -11 23 -20 30 -20 8 0 22 -9 32 -20 10 -11 26 -20 35 -20 9 0 25 -9 35 -20 10 -11 26 -20 35 -20 10 0 28 -8 41 -18 13 -11 37 -22 53 -26 16 -4 41 -16 54 -27 14 -10 34 -19 44 -19 11 0 31 -9 45 -20 14 -11 37 -20 50 -20 14 0 36 -9 50 -20 15 -11 41 -20 60 -20 20 0 46 -9 60 -20 16 -12 41 -20 65 -20 21 0 56 -9 78 -20 22 -11 57 -20 80 -20 22 0 66 -9 97 -19 32 -11 103 -22 158 -26 55 -3 135 -13 179 -21 101 -18 343 -18 433 0 37 8 120 17 183 21 66 4 127 13 143 22 15 7 58 16 95 20 38 3 80 14 98 24 17 11 49 19 70 19 22 0 52 9 69 20 17 11 44 20 61 20 17 0 43 9 57 20 14 11 36 20 50 20 13 0 35 8 48 18 13 11 39 22 57 25 19 4 45 16 59 27 14 11 32 20 40 20 8 0 26 9 40 20 14 11 33 20 43 20 9 0 25 9 35 20 10 11 26 20 35 20 10 0 23 7 30 16 8 8 27 22 44 30 17 7 43 22 57 31 106 71 146 99 159 110 8 7 55 45 103 83 116 91 317 291 406 405 39 50 81 103 93 118 13 15 32 43 43 61 11 19 34 54 52 79 17 25 34 54 37 65 4 11 15 27 26 37 11 10 20 26 20 37 0 10 9 26 20 35 11 10 20 25 20 34 0 9 8 27 19 40 10 13 22 39 26 57 4 18 13 36 21 39 8 3 14 18 14 34 0 17 9 36 20 46 11 10 20 29 20 43 0 14 9 39 19 57 11 17 23 49 27 70 4 21 13 47 20 58 7 11 16 40 20 65 4 25 15 62 25 82 11 21 19 57 19 82 0 24 9 63 20 87 14 31 20 66 20 120 0 41 7 100 16 130 9 30 19 90 23 133 l6 80 34 9 c18 4 43 14 55 21 11 8 34 17 50 20 16 4 41 16 54 27 14 10 31 19 38 19 7 0 51 37 97 83 81 80 127 140 127 168 0 8 9 25 20 39 11 14 20 41 20 61 0 20 7 58 15 85 22 72 22 788 0 860 -8 27 -15 65 -15 84 0 19 -9 49 -20 65 -11 17 -20 35 -20 42 0 31 -158 223 -184 223 -6 0 -17 9 -24 20 -7 11 -21 20 -31 20 -10 0 -24 7 -31 15 -7 8 -31 20 -54 26 -22 6 -52 18 -66 27 -20 13 -54 16 -175 16 -136 0 -154 -2 -190 -22 -22 -12 -49 -22 -61 -22 -11 0 -31 -9 -44 -20 -13 -11 -28 -20 -35 -20 -7 0 -20 -9 -30 -20 -10 -11 -23 -20 -29 -20 -35 -1 -169 -180 -192 -258 -8 -24 -20 -52 -26 -60 -10 -12 -13 -128 -13 -511 l0 -496 24 -60 c13 -33 27 -67 32 -75 5 -8 15 -27 22 -42 31 -66 145 -180 217 -216 14 -7 36 -19 50 -27 14 -8 35 -15 46 -15 12 0 27 -7 34 -15 7 -8 28 -17 48 -21 l35 -7 -7 -159 c-4 -116 -10 -168 -22 -190 -9 -17 -19 -68 -23 -113 -5 -49 -15 -92 -24 -106 -10 -13 -17 -39 -17 -59 0 -19 -9 -48 -20 -65 -11 -16 -20 -45 -20 -63 0 -19 -9 -45 -20 -59 -11 -14 -20 -33 -20 -42 0 -9 -11 -38 -25 -66 -13 -27 -25 -56 -25 -63 0 -8 -9 -25 -20 -39 -11 -14 -20 -33 -20 -43 0 -9 -9 -25 -20 -35 -11 -10 -20 -28 -20 -40 0 -12 -9 -30 -20 -40 -11 -10 -20 -23 -20 -29 0 -6 -20 -40 -45 -76 -25 -36 -45 -69 -45 -73 0 -5 -26 -41 -58 -80 -32 -40 -63 -79 -68 -88 -18 -32 -80 -102 -195 -217 -164 -165 -270 -257 -327 -282 -12 -5 -25 -17 -28 -25 -4 -8 -12 -15 -19 -15 -6 0 -20 -9 -30 -20 -10 -11 -24 -20 -31 -20 -7 0 -25 -11 -41 -24 -15 -13 -38 -26 -50 -30 -13 -4 -23 -11 -23 -16 0 -5 -10 -12 -22 -16 -13 -4 -34 -15 -47 -25 -13 -11 -31 -19 -41 -19 -9 0 -25 -9 -35 -20 -10 -11 -28 -20 -40 -20 -12 0 -34 -9 -48 -20 -14 -11 -31 -20 -39 -20 -7 0 -27 -9 -45 -19 -17 -11 -49 -23 -70 -27 -21 -3 -45 -13 -54 -20 -8 -8 -36 -18 -61 -22 -25 -5 -56 -16 -69 -25 -13 -10 -43 -17 -67 -17 -23 0 -60 -9 -82 -20 -25 -13 -59 -20 -95 -20 -30 0 -81 -9 -112 -20 -53 -18 -83 -20 -395 -20 -313 0 -343 2 -395 20 -32 11 -83 20 -115 20 -39 0 -70 7 -95 20 -21 11 -56 20 -78 20 -22 0 -56 8 -75 18 -19 11 -52 22 -74 25 -21 3 -46 13 -55 20 -9 8 -35 18 -58 22 -23 3 -47 13 -53 20 -6 8 -26 17 -43 21 -18 3 -43 15 -56 25 -13 11 -31 19 -41 19 -10 0 -29 9 -43 20 -14 11 -30 20 -37 20 -7 0 -23 9 -37 20 -14 11 -31 20 -38 20 -6 0 -20 9 -30 20 -10 11 -23 20 -28 20 -5 0 -48 26 -94 58 -47 31 -92 62 -101 67 -8 6 -22 16 -31 23 -9 7 -33 26 -54 42 -87 65 -297 266 -366 350 -82 100 -152 193 -176 235 -15 28 -33 55 -39 60 -16 14 -106 165 -106 177 0 5 -9 21 -20 35 -11 14 -20 31 -20 38 0 7 -8 23 -19 36 -10 13 -22 39 -26 58 -4 19 -16 48 -26 65 -10 17 -19 39 -19 49 0 11 -9 30 -20 44 -12 15 -20 41 -20 62 0 20 -9 50 -20 66 -11 17 -20 44 -20 62 0 18 -9 49 -19 70 -10 21 -22 71 -26 111 -3 40 -13 89 -22 110 -17 39 -31 269 -19 315 5 20 13 25 51 30 25 2 54 11 63 19 9 9 32 18 50 22 19 3 45 15 59 26 14 11 30 20 35 20 12 0 102 74 136 110 12 14 34 45 49 70 14 25 32 52 39 60 6 8 15 31 19 50 4 19 14 46 23 60 15 22 17 77 17 521 0 450 -2 499 -17 515 -9 11 -19 36 -23 57 -4 20 -16 48 -26 61 -11 13 -19 27 -19 30 0 25 -134 176 -157 176 -6 0 -18 9 -28 20 -10 11 -24 20 -30 20 -7 0 -23 8 -36 19 -13 10 -43 22 -67 26 -23 4 -49 13 -57 22 -17 16 -20 79 -5 88 6 3 10 19 10 34 0 15 9 36 20 46 11 10 20 28 20 40 0 12 9 32 20 45 11 13 20 31 20 40 0 9 11 29 25 44 14 15 25 33 25 40 0 7 8 23 18 34 9 12 28 38 42 58 59 85 125 157 204 223 47 39 89 71 94 71 5 0 17 9 27 20 10 11 26 20 35 20 10 0 29 9 43 20 14 11 33 20 44 20 10 0 33 9 51 20 18 11 48 20 66 20 18 0 62 9 96 20 59 19 90 20 521 20 l457 0 31 -26 c17 -14 31 -31 31 -38 0 -17 83 -96 100 -96 8 0 29 -9 45 -20 23 -15 47 -20 100 -20 53 0 77 5 100 20 17 11 37 20 45 20 17 0 71 54 109 109 21 30 24 45 24 135 0 97 -2 103 -32 148 -37 55 -96 104 -137 114 -16 4 -38 13 -49 20 -27 19 -103 16 -150 -7z m159 -222 c33 -42 32 -58 0 -96 -22 -27 -32 -31 -74 -31 -42 0 -51 4 -69 29 -27 38 -26 57 5 98 22 29 31 33 69 33 38 0 47 -4 69 -33z m-2289 -1241 c17 -9 41 -16 53 -16 13 0 35 -9 49 -20 14 -11 31 -20 37 -20 15 0 136 -116 136 -130 0 -7 9 -23 20 -37 11 -14 20 -34 20 -43 0 -10 9 -38 20 -64 20 -44 21 -61 18 -448 -3 -365 -5 -405 -20 -428 -10 -13 -18 -35 -18 -47 0 -47 -116 -189 -180 -221 -14 -6 -32 -16 -40 -20 -38 -23 -121 -45 -176 -49 -49 -4 -69 0 -100 16 -21 12 -50 21 -65 21 -14 0 -34 9 -44 20 -10 11 -24 20 -31 20 -22 0 -122 121 -154 186 l-31 64 3 464 c3 412 5 466 19 482 9 11 20 30 24 44 9 29 20 43 94 116 30 30 60 54 66 54 7 0 20 9 30 20 10 11 30 20 44 21 14 0 46 9 71 20 50 21 108 19 155 -5z m5424 4 c24 -11 55 -20 71 -20 15 0 35 -9 45 -20 10 -11 23 -20 29 -20 11 0 91 -74 132 -121 12 -13 26 -41 33 -61 7 -20 17 -38 24 -41 9 -3 12 -118 12 -473 l0 -469 -28 -57 c-31 -61 -140 -188 -162 -188 -7 0 -24 -9 -38 -20 -14 -11 -33 -20 -42 -20 -9 0 -37 -9 -62 -21 -34 -16 -59 -20 -102 -16 -51 4 -134 27 -171 49 -8 4 -26 14 -39 20 -62 32 -170 160 -171 203 0 11 -9 38 -20 60 -18 37 -19 66 -20 445 0 387 1 407 20 443 11 20 20 44 20 53 0 29 54 109 109 161 31 29 60 53 64 53 5 0 20 9 34 20 14 11 37 20 50 20 14 0 39 6 56 14 71 32 97 33 156 6z"/>
 </g>

</svg>