<!DOCTYPE svg PUBLIC "-//W3C//DTD SVG 20010904//EN" "http://www.w3.org/TR/2001/REC-SVG-20010904/DTD/svg10.dtd">
<svg version="1.0" xmlns="http://www.w3.org/2000/svg" width="245px" height="251px" viewBox="0 0 2450 2510" preserveAspectRatio="xMidYMid meet">
<g id="layer101" fill="#020202" stroke="none">
 <path d="M320 1839 l0 -671 152 -156 c83 -87 278 -286 433 -445 264 -269 284 -287 318 -287 32 0 49 15 224 193 104 105 222 227 262 270 40 42 151 157 246 255 l174 177 1 668 0 667 -905 0 -905 0 0 -671z m1707 -9 l3 -595 -233 -240 c-127 -132 -310 -318 -405 -415 l-172 -175 -108 110 c-59 61 -199 204 -311 320 -112 116 -243 251 -292 301 l-89 91 0 595 c0 327 3 598 7 601 3 4 365 6 802 5 l796 -3 2 -595z"/>
 <path d="M1245 2278 c-16 -6 -37 -17 -46 -24 -8 -8 -20 -14 -26 -14 -5 0 -20 -11 -33 -25 -17 -18 -34 -25 -61 -25 -21 0 -60 -10 -86 -21 -27 -12 -57 -26 -69 -31 -33 -15 -103 -87 -139 -144 -42 -65 -65 -167 -65 -286 0 -135 25 -288 58 -360 12 -26 22 -51 22 -55 0 -5 6 -22 13 -37 12 -27 14 -28 70 -23 32 3 66 11 75 19 9 8 33 22 52 31 19 9 49 26 65 37 17 11 37 23 45 27 8 3 42 28 76 54 106 84 193 210 194 282 0 10 7 28 15 41 15 22 19 23 114 18 54 -2 120 -1 146 2 l47 8 -4 93 c-2 51 -9 99 -14 106 -6 8 -16 39 -23 69 -6 30 -22 78 -36 105 -13 28 -25 55 -25 62 0 6 -23 31 -52 55 l-52 43 -115 2 c-65 1 -129 -3 -146 -9z m167 -98 c25 -7 53 -29 87 -67 28 -31 51 -62 51 -69 0 -6 6 -17 14 -23 7 -6 19 -39 25 -74 7 -34 14 -70 16 -80 5 -27 -19 -31 -109 -18 -91 14 -106 23 -106 58 0 34 -29 120 -46 134 -8 6 -14 15 -14 20 0 4 -11 25 -25 45 -33 48 -32 62 8 73 43 12 56 13 99 1z m-206 -137 c26 -29 49 -68 59 -102 10 -31 21 -64 26 -73 12 -23 11 -114 0 -136 -6 -9 -18 -39 -28 -67 -12 -34 -39 -73 -87 -122 -37 -40 -73 -73 -78 -73 -6 0 -24 -12 -41 -26 -17 -14 -55 -37 -83 -50 -29 -13 -56 -29 -59 -34 -9 -15 -25 -12 -25 4 0 7 -6 19 -14 25 -15 13 -29 80 -47 224 -14 109 -3 215 27 277 10 19 50 67 90 106 61 60 80 73 121 82 86 18 94 16 139 -35z"/>
 <path d="M0 1238 c0 -50 3 -56 58 -117 31 -35 63 -69 71 -75 17 -14 212 -207 263 -261 21 -22 54 -56 75 -75 21 -20 60 -59 86 -88 26 -28 52 -52 56 -52 5 0 21 -16 35 -35 27 -35 99 -110 376 -389 l145 -146 58 0 59 0 231 236 c128 131 391 397 585 593 l352 356 0 52 c0 52 -1 53 -29 53 -24 0 -71 -43 -312 -287 -156 -159 -338 -342 -404 -408 -67 -66 -198 -200 -293 -297 -94 -97 -176 -179 -182 -183 -5 -3 -61 45 -123 108 -61 63 -317 322 -567 577 -250 255 -461 469 -468 477 -7 7 -27 13 -43 13 -28 0 -29 -1 -29 -52z"/>
 </g>

</svg>