<!DOCTYPE svg PUBLIC "-//W3C//DTD SVG 20010904//EN" "http://www.w3.org/TR/2001/REC-SVG-20010904/DTD/svg10.dtd">
<svg version="1.0" xmlns="http://www.w3.org/2000/svg" width="211px" height="230px" viewBox="0 0 2110 2300" preserveAspectRatio="xMidYMid meet">
<g id="layer101" fill="#000000" stroke="none">
 <path d="M502 2284 c-12 -8 -30 -30 -40 -47 -16 -30 -17 -104 -20 -1057 -2 -564 0 -1045 3 -1069 5 -32 16 -54 40 -78 l33 -33 535 0 535 0 31 26 c17 14 35 42 41 62 14 53 14 2063 -1 2116 -6 22 -24 52 -39 68 l-28 28 -534 0 c-467 0 -536 -2 -556 -16z m1046 -88 l37 -34 0 -154 0 -153 -519 -3 c-393 -2 -522 1 -533 10 -12 10 -14 39 -11 153 3 129 5 143 26 170 13 17 31 33 40 37 9 4 221 7 470 7 l452 1 38 -34z m30 -438 c17 -17 17 -1439 0 -1456 -17 -17 -1029 -17 -1046 0 -16 16 -17 1419 -2 1449 10 18 27 19 523 19 386 0 516 -3 525 -12z m1 -1562 c9 -11 9 -25 1 -55 -19 -72 -10 -71 -522 -71 -429 0 -455 1 -484 19 -33 20 -61 79 -50 106 8 22 1037 22 1055 1z"/>
 <path d="M983 2180 c-46 -27 -63 -68 -63 -145 0 -77 18 -118 60 -140 34 -18 112 -20 143 -4 70 38 96 154 55 244 -26 58 -134 83 -195 45z m111 -101 c34 -40 33 -63 -3 -88 -37 -27 -39 -26 -73 6 -34 33 -35 52 -3 87 31 34 47 33 79 -5z"/>
 <path d="M880 140 l0 -40 105 0 105 0 0 40 0 40 -105 0 -105 0 0 -40z"/>
 <path d="M1130 166 c-6 -8 -10 -25 -8 -38 3 -20 9 -23 56 -26 l52 -3 0 40 0 41 -44 0 c-26 0 -48 -6 -56 -14z"/>
 <path d="M74 775 c-15 -19 -37 -65 -50 -101 -21 -56 -24 -83 -24 -200 0 -128 2 -139 30 -208 36 -87 66 -119 106 -114 25 2 29 8 32 36 3 24 -5 42 -31 75 -68 86 -96 182 -77 274 11 52 79 185 101 199 5 3 9 21 9 40 0 32 -2 34 -34 34 -28 0 -40 -7 -62 -35z"/>
 <path d="M1940 774 c0 -24 9 -48 28 -73 97 -126 112 -244 47 -379 -13 -26 -35 -59 -49 -73 -19 -17 -26 -34 -26 -61 0 -37 1 -38 34 -38 30 0 38 6 69 53 62 95 69 126 65 298 -3 138 -6 159 -27 199 -44 85 -69 110 -107 110 -32 0 -34 -2 -34 -36z"/>
 <path d="M1800 692 c0 -25 8 -49 21 -66 57 -72 60 -189 8 -270 -36 -58 -41 -126 -9 -126 36 0 67 29 94 90 52 115 44 265 -17 357 -26 39 -38 49 -64 51 -32 3 -33 2 -33 -36z"/>
 <path d="M227 688 c-43 -59 -57 -111 -57 -218 0 -84 4 -108 24 -152 35 -75 58 -101 87 -96 20 2 25 9 27 41 2 23 -2 46 -10 55 -20 25 -46 85 -53 126 -10 49 11 128 47 177 39 54 36 93 -9 97 -25 3 -36 -3 -56 -30z"/>
 </g>

</svg>