<!DOCTYPE svg PUBLIC "-//W3C//DTD SVG 20010904//EN" "http://www.w3.org/TR/2001/REC-SVG-20010904/DTD/svg10.dtd">
<svg version="1.0" xmlns="http://www.w3.org/2000/svg" width="220px" height="225px" viewBox="0 0 2200 2250" preserveAspectRatio="xMidYMid meet">
<g id="layer101" fill="#010101" stroke="none">
 <path d="M879 2219 c-42 -45 -40 -96 6 -148 l35 -38 0 -107 0 -106 40 0 40 0 0 106 0 107 35 38 c71 79 28 178 -78 179 -42 0 -53 -4 -78 -31z m99 -48 c21 -13 10 -46 -16 -49 -24 -4 -38 18 -28 43 6 17 24 19 44 6z"/>
 <path d="M1181 2234 c-57 -40 -58 -131 -3 -174 l27 -22 5 -366 5 -367 30 0 30 0 3 363 2 364 35 32 c30 29 35 40 35 79 0 68 -36 107 -99 107 -27 0 -56 -7 -70 -16z m87 -87 c3 -23 0 -27 -23 -27 -30 0 -43 24 -25 46 19 22 45 13 48 -19z"/>
 <path d="M314 2106 c-44 -19 -64 -53 -64 -106 0 -53 17 -82 59 -100 42 -17 92 -5 126 30 28 29 32 30 118 30 85 0 90 -1 118 -29 l29 -29 0 -190 c0 -105 3 -197 6 -206 4 -10 18 -16 40 -16 l34 0 0 203 c0 175 -3 207 -19 242 -38 82 -84 105 -211 105 -83 0 -91 2 -105 23 -28 43 -86 62 -131 43z m70 -92 c7 -19 -10 -44 -29 -44 -19 0 -36 25 -29 44 3 9 16 16 29 16 13 0 26 -7 29 -16z"/>
 <path d="M1815 2109 c-11 -6 -33 -24 -50 -39 -28 -27 -37 -29 -131 -32 -91 -3 -104 -5 -136 -30 -61 -46 -78 -97 -78 -226 l0 -112 40 0 40 0 0 105 c0 163 20 185 165 185 74 0 86 -2 95 -20 14 -26 62 -50 101 -50 48 0 99 56 99 109 0 74 -89 142 -145 110z m60 -109 c0 -16 -6 -26 -19 -28 -25 -5 -39 12 -31 38 10 31 50 24 50 -10z"/>
 <path d="M927 1744 c-4 -4 -7 -135 -7 -291 l0 -283 -49 0 c-27 0 -56 -3 -65 -6 -14 -5 -16 9 -16 114 0 127 -8 152 -49 152 -35 0 -41 -21 -41 -144 l0 -121 -184 3 c-259 4 -338 -14 -424 -100 -61 -60 -86 -118 -90 -209 -6 -122 15 -178 96 -258 65 -64 67 -68 78 -136 21 -132 90 -232 198 -288 56 -29 69 -31 156 -31 79 0 103 4 142 23 l47 22 58 -58 c100 -99 211 -139 363 -131 116 7 197 44 283 130 36 35 69 71 74 81 8 16 15 17 54 8 129 -30 278 16 371 115 29 32 98 157 98 179 0 8 20 28 45 45 95 65 134 147 135 276 0 82 -3 97 -31 152 -36 73 -91 123 -168 154 -51 20 -77 22 -278 26 l-223 4 0 214 0 214 -40 0 -40 0 0 -215 0 -215 -64 0 -65 0 -3 33 c-3 29 -6 32 -40 35 -37 3 -38 3 -38 -32 l0 -36 -89 0 c-49 0 -96 -3 -105 -6 -14 -5 -16 26 -18 287 l-3 294 -30 3 c-17 2 -34 0 -38 -4z m1029 -669 c146 -43 217 -214 148 -353 -33 -66 -86 -108 -161 -127 -52 -13 -65 -13 -116 0 -75 19 -73 20 -87 -16 -11 -26 -11 -32 1 -40 26 -17 112 -39 151 -39 21 0 38 -3 38 -8 0 -17 -72 -113 -103 -136 -18 -14 -53 -32 -76 -41 -56 -19 -181 -20 -228 0 -19 8 -39 15 -43 15 -5 0 -25 -27 -45 -60 -65 -107 -160 -172 -279 -191 -100 -17 -194 9 -286 77 -85 62 -91 79 -47 140 40 56 67 129 67 180 0 35 -1 35 -37 32 -37 -3 -38 -4 -44 -49 -19 -132 -144 -239 -280 -239 -96 0 -200 65 -244 153 -21 42 -25 65 -25 134 l0 83 -37 15 c-48 20 -99 69 -126 120 -27 53 -29 164 -3 215 36 70 102 124 171 141 17 4 393 7 836 8 682 1 813 -1 855 -14z"/>
 <path d="M245 1004 c-16 -8 -38 -23 -49 -32 -26 -24 -56 -86 -56 -117 0 -22 4 -25 34 -25 30 0 36 4 46 34 13 40 35 62 73 71 24 6 27 12 27 46 0 34 -3 39 -22 39 -13 0 -36 -7 -53 -16z"/>
 <path d="M1884 1005 c-10 -24 5 -65 22 -65 9 0 31 -15 50 -34 57 -57 40 -139 -36 -170 -34 -14 -40 -20 -40 -46 0 -97 170 9 186 115 8 55 -9 106 -49 152 -47 54 -121 80 -133 48z"/>
 <path d="M1338 976 c-21 -8 -49 -21 -62 -29 -27 -18 -66 -92 -66 -126 0 -20 4 -22 38 -19 29 2 38 7 40 25 2 12 17 34 33 48 60 49 146 23 165 -50 6 -23 11 -26 43 -23 34 3 36 5 33 33 -5 44 -33 86 -77 116 -50 34 -99 42 -147 25z"/>
 <path d="M473 803 c-17 -6 -16 -48 2 -82 22 -44 91 -98 133 -105 82 -13 167 38 197 119 20 51 14 65 -25 65 -24 0 -32 -6 -43 -32 -19 -44 -47 -68 -88 -74 -46 -7 -97 25 -106 66 -7 39 -37 57 -70 43z"/>
 <path d="M1251 624 c-13 -16 -18 -31 -12 -38 16 -22 22 -68 11 -101 -19 -58 -83 -81 -145 -53 -22 10 -29 8 -50 -12 -20 -18 -22 -26 -13 -37 22 -27 67 -43 120 -43 62 0 103 21 144 76 25 33 29 46 29 105 0 53 -5 74 -21 95 -28 38 -38 39 -63 8z"/>
 <path d="M317 497 c-20 -52 86 -189 155 -202 52 -10 70 -1 66 31 -3 28 -6 30 -70 57 -37 16 -78 75 -78 112 0 19 -66 21 -73 2z"/>
 </g>

</svg>