<!DOCTYPE svg PUBLIC "-//W3C//DTD SVG 20010904//EN" "http://www.w3.org/TR/2001/REC-SVG-20010904/DTD/svg10.dtd">
<svg version="1.0" xmlns="http://www.w3.org/2000/svg" width="1080px" height="1080px" viewBox="0 0 10800 10800" preserveAspectRatio="xMidYMid meet">
<g id="layer101" fill="#1d231d" stroke="none">
 <path d="M5190 9889 c-423 -17 -860 -99 -1255 -236 -1617 -561 -2778 -1986 -2995 -3678 -47 -368 -47 -782 0 -1150 260 -2025 1860 -3625 3885 -3885 372 -48 778 -48 1150 0 2025 260 3625 1860 3885 3885 62 483 43 989 -55 1471 -316 1554 -1439 2835 -2938 3353 -538 185 -1085 264 -1677 240z"/>
 </g>
<g id="layer102" fill="#27a654" stroke="none">
 <path d="M5190 9889 c-423 -17 -860 -99 -1255 -236 -1617 -561 -2778 -1986 -2995 -3678 -47 -368 -47 -782 0 -1150 260 -2025 1860 -3625 3885 -3885 372 -48 778 -48 1150 0 2025 260 3625 1860 3885 3885 62 483 43 989 -55 1471 -316 1554 -1439 2835 -2938 3353 -538 185 -1085 264 -1677 240z m3360 -3786 l-1 -2078 -60 -65 c-33 -36 -76 -85 -97 -110 -20 -25 -70 -83 -112 -130 -41 -47 -95 -110 -120 -140 -25 -29 -52 -61 -60 -69 -9 -9 -40 -45 -70 -81 -30 -36 -72 -83 -92 -105 -20 -22 -51 -59 -70 -82 -18 -23 -62 -74 -97 -115 -119 -136 -176 -201 -186 -212 -6 -6 -23 -27 -39 -46 -16 -19 -55 -64 -87 -100 -31 -36 -66 -75 -76 -88 l-18 -22 -1939 0 -1938 0 -42 47 c-22 27 -43 50 -46 53 -3 3 -32 37 -65 75 -33 39 -62 72 -65 75 -3 3 -45 52 -95 110 -49 58 -94 110 -100 116 -6 6 -31 35 -56 64 -55 66 -185 216 -254 295 -29 33 -66 76 -81 95 -27 33 -67 78 -123 139 -13 14 -40 46 -60 71 -20 25 -40 50 -46 56 -26 28 -117 134 -135 157 -20 25 -20 35 -20 2096 l0 2071 3125 0 3125 0 0 -2077z"/>
 <path d="M2400 7975 l0 -115 68 0 c37 0 486 0 997 0 512 0 945 -3 963 -6 30 -6 32 -8 32 -50 l0 -44 -813 0 c-635 0 -817 -3 -830 -12 -16 -12 -17 -102 -15 -1348 l3 -1335 903 -3 902 -2 0 1515 0 1515 -1105 0 -1105 0 0 -115z"/>
 <path d="M4710 7975 l0 -115 53 0 c1193 -4 3683 2 3689 8 5 5 7 56 6 113 l-3 104 -1872 3 -1873 2 0 -115z"/>
 <path d="M2413 7753 c-10 -4 -13 -383 -13 -1850 l0 -1845 83 -92 c77 -87 128 -145 210 -241 19 -22 67 -79 108 -126 41 -47 93 -108 116 -135 22 -27 49 -58 60 -69 10 -11 45 -51 78 -90 33 -38 63 -72 66 -75 3 -3 32 -36 64 -75 32 -38 73 -86 91 -105 18 -19 70 -80 115 -134 112 -133 110 -132 162 -74 64 70 198 225 235 272 19 22 50 59 70 81 20 22 62 69 92 105 30 36 75 88 100 115 25 28 65 75 89 104 25 29 50 59 55 65 6 6 36 40 66 76 30 36 73 85 95 109 22 24 45 49 50 55 6 6 22 27 36 46 15 19 59 69 97 110 l71 75 1 453 0 452 -950 0 -950 0 0 1394 c0 1262 -1 1394 -16 1400 -19 7 -263 7 -281 -1z"/>
 <path d="M4723 7753 c-10 -4 -13 -379 -13 -1829 l0 -1824 909 0 c820 0 909 2 915 16 3 9 6 127 6 263 0 227 -2 249 -18 264 -10 10 -25 17 -34 17 -24 0 -107 78 -131 124 -17 32 -21 58 -21 121 1 95 15 130 83 195 102 98 226 94 332 -10 50 -50 58 -63 71 -120 24 -113 -14 -219 -103 -283 -20 -15 -43 -27 -51 -27 -35 0 -38 -20 -38 -292 l0 -268 913 2 912 3 3 1815 c2 1698 1 1816 -15 1828 -13 9 -188 12 -794 12 -428 0 -784 -3 -793 -6 -23 -9 -24 -265 -1 -284 8 -7 15 -19 15 -26 0 -8 5 -14 10 -14 6 0 10 -6 10 -14 0 -24 25 -42 96 -66 116 -39 207 -95 304 -186 55 -52 79 -85 110 -148 22 -45 40 -91 40 -102 0 -11 4 -24 9 -29 15 -16 23 -223 12 -305 -18 -137 -35 -190 -59 -190 -29 0 -167 54 -227 88 -140 82 -252 200 -293 312 -47 128 -61 260 -42 402 l12 94 -51 90 -51 90 0 137 c0 125 -2 137 -19 147 -21 11 -398 15 -425 4 -14 -5 -16 -27 -16 -140 0 -146 4 -131 -82 -278 l-29 -49 12 -91 c31 -237 -24 -442 -155 -578 -55 -58 -125 -111 -196 -150 -50 -27 -188 -78 -212 -78 -21 0 -34 36 -54 149 -19 108 -15 278 10 361 26 89 76 179 134 242 50 54 183 150 242 175 14 5 42 18 63 27 21 9 45 16 55 16 27 1 46 21 80 82 31 55 32 60 32 181 0 105 -3 126 -16 131 -19 7 -1433 7 -1451 -1z m1967 -1587 c92 -15 173 -33 205 -46 11 -4 41 -16 67 -27 27 -10 48 -21 48 -25 0 -5 5 -8 10 -8 10 0 101 -55 133 -80 42 -32 107 -94 107 -102 0 -5 -13 -23 -28 -40 l-29 -30 -50 43 c-74 64 -86 74 -124 95 -19 10 -36 21 -39 24 -26 27 -193 80 -302 96 -99 14 -117 14 -218 -1 -61 -9 -123 -21 -138 -27 -15 -6 -38 -15 -52 -20 -41 -16 -181 -89 -203 -107 -11 -9 -43 -36 -69 -60 l-49 -45 -30 31 c-16 18 -29 35 -29 38 0 25 167 151 265 199 115 57 160 71 295 92 102 15 131 15 230 0z m-13 -337 c56 -8 104 -24 171 -56 88 -42 182 -112 182 -136 0 -13 -40 -57 -52 -57 -4 0 -34 20 -65 44 -60 47 -144 85 -226 105 -145 34 -325 -11 -447 -113 l-54 -46 -28 27 c-15 15 -28 32 -28 39 0 19 83 87 147 122 135 71 251 92 400 71z m31 -356 c43 -20 102 -62 102 -73 0 -12 -52 -60 -64 -60 -7 0 -22 9 -34 20 -12 11 -28 20 -36 20 -8 0 -18 5 -21 10 -3 6 -34 10 -68 10 -48 -1 -75 -7 -122 -31 l-60 -30 -29 32 -29 33 29 23 c60 49 103 62 202 63 68 0 104 -5 130 -17z"/>
 <path d="M5966 7210 c-22 -11 -47 -27 -56 -35 -9 -8 -21 -15 -27 -15 -5 0 -32 -21 -59 -47 -131 -126 -170 -238 -165 -465 1 -43 21 -51 39 -15 6 12 27 49 47 82 19 33 41 71 47 85 7 14 15 27 18 30 3 3 11 16 18 30 6 14 20 39 30 55 50 86 172 303 172 309 0 11 -24 6 -64 -14z"/>
 <path d="M7000 7223 c0 -5 16 -34 34 -65 34 -56 48 -80 116 -203 18 -33 44 -77 57 -97 12 -21 23 -39 23 -41 0 -9 103 -183 116 -196 23 -24 28 -5 26 97 -2 116 -20 193 -63 270 -35 60 -142 172 -165 172 -8 0 -14 4 -14 9 0 10 -96 61 -116 61 -8 0 -14 -3 -14 -7z"/>
 <path d="M6072 7098 c-7 -7 -12 -18 -12 -25 0 -7 -4 -13 -10 -13 -5 0 -10 -6 -10 -13 0 -7 -11 -28 -23 -47 -13 -19 -35 -55 -49 -80 -14 -25 -64 -114 -111 -197 -48 -84 -87 -157 -87 -163 0 -16 62 14 123 59 98 72 165 167 192 271 12 49 23 165 18 193 -6 30 -13 33 -31 15z"/>
 <path d="M6928 7079 c-9 -57 21 -218 51 -278 45 -88 164 -202 246 -237 38 -16 42 -12 22 26 -26 49 -74 135 -96 175 -61 106 -157 272 -168 290 -7 11 -16 28 -19 38 -10 28 -31 20 -36 -14z"/>
 <path d="M6524 5060 c-36 -14 -94 -90 -95 -124 -3 -93 21 -146 82 -176 73 -38 149 -19 194 48 35 52 35 142 1 193 -40 58 -120 84 -182 59z"/>
 <path d="M4618 3928 c-36 -40 -78 -89 -94 -108 -16 -19 -60 -71 -99 -115 -39 -44 -95 -109 -125 -145 -30 -36 -58 -67 -61 -70 -4 -3 -22 -23 -39 -45 -17 -22 -48 -58 -69 -80 -20 -22 -63 -71 -95 -110 -32 -38 -75 -88 -95 -110 -20 -22 -76 -87 -126 -145 -49 -58 -92 -107 -95 -110 -30 -29 -90 -112 -85 -120 9 -14 3571 -14 3580 0 7 11 -38 71 -138 182 -35 40 -78 89 -93 108 -16 19 -33 40 -39 46 -5 6 -32 37 -60 69 -43 51 -112 129 -152 172 -7 8 -29 35 -50 61 -21 26 -42 52 -48 58 -5 6 -28 31 -50 55 -22 25 -65 74 -95 109 -30 36 -60 71 -67 78 -7 7 -29 34 -50 60 -21 26 -40 49 -43 52 -3 3 -40 44 -84 93 l-78 87 -743 0 -742 0 -65 -72z"/>
 <path d="M6320 3987 c0 -7 10 -23 23 -37 13 -14 44 -51 70 -83 26 -32 63 -75 82 -95 34 -37 54 -60 89 -104 11 -12 51 -59 90 -104 39 -44 83 -95 97 -113 15 -17 46 -53 70 -79 24 -26 56 -63 71 -82 14 -19 55 -67 89 -106 35 -39 73 -82 83 -95 10 -13 37 -44 60 -69 45 -50 99 -112 154 -177 19 -24 40 -43 46 -43 14 0 70 58 141 145 27 33 52 62 55 65 3 3 37 41 74 85 110 128 159 185 237 273 41 46 88 101 105 123 18 21 59 69 91 106 33 38 68 78 79 91 20 25 36 43 94 108 19 22 51 59 71 84 20 25 46 56 58 69 47 54 102 51 -1004 51 -818 0 -1025 -3 -1025 -13z"/>
 </g>

</svg>