<!DOCTYPE svg PUBLIC "-//W3C//DTD SVG 20010904//EN" "http://www.w3.org/TR/2001/REC-SVG-20010904/DTD/svg10.dtd">
<svg version="1.0" xmlns="http://www.w3.org/2000/svg" width="300px" height="300px" viewBox="0 0 3000 3000" preserveAspectRatio="xMidYMid meet">
<g id="layer101" fill="#000000" stroke="none">
 <path d="M365 2415 c-75 -30 -125 -83 -154 -159 -21 -58 -21 -60 -19 -800 l3 -741 22 -41 c34 -64 71 -103 127 -132 l51 -27 1094 -3 c953 -2 1101 0 1147 13 74 21 147 89 174 161 20 55 20 68 18 798 l-3 741 -28 57 c-34 70 -78 110 -152 137 -55 21 -62 21 -1138 21 l-1082 0 -60 -25z m2045 -116 c0 -15 -610 -639 -624 -639 -6 0 -67 56 -136 125 -69 69 -132 125 -141 125 -10 0 -73 -58 -141 -130 -69 -71 -132 -130 -141 -130 -8 0 -24 11 -35 24 -10 14 -147 156 -303 316 -156 160 -285 298 -287 306 -3 12 122 14 902 14 652 0 906 -3 906 -11z m-1655 -344 c185 -190 346 -356 357 -370 11 -14 18 -34 16 -45 -2 -10 -97 -115 -213 -232 -115 -117 -288 -293 -384 -390 -96 -98 -181 -178 -188 -178 -11 0 -13 132 -13 723 0 397 4 739 9 760 11 44 36 77 61 77 10 0 169 -155 355 -345z m1892 328 c54 -35 53 -23 53 -818 0 -582 -3 -735 -12 -734 -12 1 -800 802 -806 819 -4 10 717 750 730 750 5 0 20 -8 35 -17z m-661 -1015 c523 -538 574 -592 574 -607 0 -8 -277 -11 -1051 -11 -883 0 -1050 2 -1047 14 2 7 233 248 513 535 453 463 513 521 541 521 27 0 79 -51 470 -452z"/>
 </g>

</svg>