<!DOCTYPE svg PUBLIC "-//W3C//DTD SVG 20010904//EN" "http://www.w3.org/TR/2001/REC-SVG-20010904/DTD/svg10.dtd">
<svg version="1.0" xmlns="http://www.w3.org/2000/svg" width="300px" height="300px" viewBox="0 0 3000 3000" preserveAspectRatio="xMidYMid meet">
<g id="layer101" fill="#000000" stroke="none">
 <path d="M875 2536 c-249 -64 -425 -235 -485 -474 -18 -71 -20 -115 -20 -592 0 -481 2 -520 20 -594 29 -113 82 -208 165 -291 80 -79 151 -124 257 -163 l73 -27 551 -3 c624 -3 639 -2 784 69 65 33 102 60 161 118 85 86 126 151 163 263 l26 77 0 553 0 553 -29 83 c-73 210 -244 368 -457 422 -73 19 -110 20 -618 19 -401 0 -554 -4 -591 -13z m1176 -184 c164 -46 275 -157 320 -320 17 -61 19 -110 19 -562 0 -540 -2 -559 -58 -664 -58 -108 -182 -200 -306 -226 -36 -7 -223 -10 -582 -8 -594 4 -578 2 -694 80 -72 48 -140 133 -167 211 -17 48 -18 95 -18 612 l0 560 37 77 c58 123 168 211 303 244 36 9 197 13 565 13 470 1 521 -1 581 -17z"/>
 <path d="M1400 2053 c-182 -23 -370 -152 -451 -308 -57 -109 -72 -167 -72 -275 -1 -255 174 -485 428 -562 91 -27 235 -29 320 -4 214 63 376 229 430 441 72 285 -124 604 -425 689 -60 17 -175 26 -230 19z m246 -217 c78 -35 164 -121 201 -201 25 -54 28 -71 28 -165 0 -94 -3 -111 -28 -165 -37 -80 -123 -166 -201 -202 -56 -26 -70 -28 -176 -28 -103 1 -121 4 -173 27 -249 115 -313 450 -124 646 88 91 173 123 317 119 79 -3 106 -8 156 -31z"/>
 <path d="M2035 958 c-55 -30 -62 -92 -14 -132 17 -14 40 -26 51 -26 29 0 78 53 78 85 0 31 -49 85 -77 85 -10 0 -27 -6 -38 -12z"/>
 </g>

</svg>