<!DOCTYPE svg PUBLIC "-//W3C//DTD SVG 20010904//EN" "http://www.w3.org/TR/2001/REC-SVG-20010904/DTD/svg10.dtd">
<svg version="1.0" xmlns="http://www.w3.org/2000/svg" width="452px" height="452px" viewBox="0 0 4520 4520" preserveAspectRatio="xMidYMid meet">
<g id="layer101" fill="#000000" stroke="none">
 <path d="M675 4132 c-165 -57 -280 -195 -305 -367 -13 -94 -13 -2914 0 -3010 28 -199 185 -356 385 -385 95 -13 2915 -13 3010 0 205 30 358 187 386 395 6 53 9 573 7 1545 l-3 1465 -23 65 c-47 137 -160 250 -288 290 -65 20 -84 20 -1593 20 -1421 -1 -1529 -2 -1576 -18z m3151 -179 c53 -28 99 -74 127 -127 l22 -41 0 -1525 0 -1525 -22 -41 c-28 -53 -74 -99 -127 -127 l-41 -22 -1510 -3 c-1706 -3 -1569 -9 -1655 78 -87 86 -81 -51 -78 1655 l3 1510 22 41 c36 68 102 123 173 145 14 4 705 7 1535 6 l1510 -2 41 -22z"/>
 <path d="M935 3585 l-25 -24 0 -896 c0 -878 0 -895 20 -915 11 -11 30 -22 42 -25 13 -3 155 -5 316 -3 l294 3 19 24 c18 22 19 52 19 918 l0 894 -25 24 -24 25 -306 0 -306 0 -24 -25z m513 -917 l-3 -773 -182 -3 -183 -2 0 775 0 775 185 0 185 0 -2 -772z"/>
 <path d="M1762 3603 c-7 -3 -19 -18 -27 -33 -13 -25 -15 -152 -15 -910 l0 -882 29 -29 29 -29 301 0 c297 0 300 0 326 23 17 14 28 36 32 62 l5 40 85 -42 c126 -62 203 -78 358 -77 107 1 144 5 210 25 246 75 408 249 486 525 22 77 23 92 26 680 l4 600 -27 27 -27 27 -304 0 -304 0 -24 -25 -25 -24 0 -468 c0 -469 -6 -566 -37 -627 -44 -88 -136 -135 -237 -122 -73 10 -118 44 -153 113 l-28 58 -5 523 -5 524 -28 24 -28 24 -302 -1 c-166 0 -308 -3 -315 -6z m500 -625 c4 -445 5 -466 26 -528 44 -133 130 -222 251 -260 185 -58 383 17 469 178 59 110 62 141 62 630 l0 442 186 0 185 0 -3 -517 c-4 -497 -5 -521 -26 -598 -34 -124 -77 -201 -151 -276 -106 -106 -228 -153 -396 -152 -163 1 -299 53 -415 161 -70 64 -105 76 -149 52 -28 -14 -34 -36 -40 -130 l-6 -85 -177 -3 -178 -2 0 775 0 775 179 0 180 0 3 -462z"/>
 <path d="M1180 1610 c-211 -44 -326 -247 -242 -425 33 -70 83 -117 162 -154 48 -23 68 -26 160 -26 95 0 111 3 168 29 115 53 192 164 192 276 0 159 -148 299 -323 306 -40 2 -92 -1 -117 -6z m187 -179 c49 -23 73 -56 79 -108 10 -81 -51 -141 -154 -150 -137 -12 -227 57 -208 162 8 41 56 91 99 104 55 16 139 12 184 -8z"/>
 </g>

</svg>