<!DOCTYPE svg PUBLIC "-//W3C//DTD SVG 20010904//EN" "http://www.w3.org/TR/2001/REC-SVG-20010904/DTD/svg10.dtd">
<svg version="1.0" xmlns="http://www.w3.org/2000/svg" width="300px" height="300px" viewBox="0 0 3000 3000" preserveAspectRatio="xMidYMid meet">
<g id="layer101" fill="#28a253" stroke="none">
<path d="M1780 2543 c-102 -17 -186 -60 -256 -130 -66 -66 -111 -153 -127 -249 -10 -59 -10 -67 6 -79 9 -7 17 -23 17 -36 0 -18 -2 -21 -9 -10 -8 12 -16 13 -48 3 -94 -29 -187 -120 -200 -197 -5 -32 -4 -35 19 -35 39 0 90 20 128 50 l35 27 -3 -38 c-7 -72 52 -214 88 -214 20 0 58 71 66 123 7 46 -10 122 -26 122 -6 0 -10 -19 -11 -42 0 -51 -20 -114 -34 -110 -32 8 -44 141 -21 227 l13 50 21 -46 c27 -59 86 -106 163 -130 71 -22 99 -24 99 -6 0 30 -50 115 -85 146 -44 38 -141 85 -161 77 -9 -3 -14 2 -14 14 0 11 4 20 8 20 5 0 14 30 21 68 24 134 97 234 210 289 50 24 67 28 156 28 88 0 106 -4 155 -27 30 -15 72 -41 92 -58 53 -44 105 -141 117 -220 7 -39 11 -252 11 -527 0 -431 -1 -462 -17 -467 -293 -84 -413 -138 -595 -268 l-97 -69 -73 53 c-193 143 -442 252 -693 302 -179 37 -494 61 -469 36 5 -5 67 -21 136 -35 69 -14 170 -40 224 -58 l99 -32 5 -60 5 -60 42 -3 c34 -3 44 1 53 18 6 12 9 28 6 36 -10 25 24 15 121 -36 190 -100 336 -236 463 -430 40 -60 76 -110 80 -110 3 0 40 51 81 113 82 125 215 266 319 339 184 129 503 253 743 288 83 13 105 24 71 37 -18 7 -259 -14 -361 -31 l-73 -12 0 485 c0 523 -1 535 -54 638 -34 69 -119 154 -186 188 -80 41 -187 60 -260 48z"/>
<path d="M1942 1578 c2 -18 11 -24 38 -28 19 -3 -109 -7 -284 -10 -292 -5 -320 -7 -330 -23 -15 -24 6 -37 62 -37 34 0 42 -3 42 -19 0 -32 28 -41 100 -32 6 0 10 12 10 26 0 23 4 25 40 25 37 0 40 -2 40 -29 0 -17 6 -31 16 -35 23 -9 34 2 34 35 0 28 1 29 49 29 47 0 50 -2 53 -27 2 -22 8 -28 28 -28 20 0 26 6 28 28 4 33 22 36 22 3 0 -47 60 -39 60 8 1 16 4 13 15 -13 11 -23 20 -31 31 -27 9 3 18 6 20 6 2 0 4 25 4 56 0 49 2 55 15 44 10 -8 15 -30 15 -60 0 -64 7 -80 36 -80 25 0 26 2 26 70 1 71 -3 82 -31 111 -26 25 -37 29 -86 29 -53 0 -56 -1 -53 -22z"/>
<path d="M2045 1361 c-3 -5 -1 -12 5 -16 6 -4 8 -10 5 -15 -16 -26 27 -59 51 -39 23 19 16 47 -16 64 -34 18 -37 18 -45 6z"/>
<path d="M695 950 c-18 -20 -18 -21 2 -41 39 -40 122 -41 164 -3 22 20 23 23 4 48 -13 17 -15 17 -37 2 -28 -20 -58 -20 -84 -1 -25 19 -28 19 -49 -5z"/>
<path d="M632 878 c-19 -19 -14 -34 20 -63 42 -36 71 -46 133 -46 55 -1 92 14 139 56 l30 26 -22 21 c-20 20 -23 21 -40 5 -57 -52 -135 -56 -204 -11 -44 28 -41 27 -56 12z"/>
<path d="M936 784 c-83 -72 -220 -74 -307 -4 -45 36 -55 37 -70 9 -9 -18 -6 -25 23 -49 111 -95 254 -104 367 -26 61 43 71 61 46 85 -20 19 -20 19 -59 -15z"/>
</g>
<g id="layer102" fill="#68b786" stroke="none">
<path d="M1761 2539 c-24 -5 -45 -10 -47 -11 -1 -2 53 -3 120 -3 116 0 124 -1 186 -32 36 -17 80 -46 98 -64 18 -17 35 -29 38 -27 8 8 -74 72 -125 98 -45 23 -159 50 -201 49 -14 -1 -45 -5 -69 -10z"/>
<path d="M1634 2496 c-71 -33 -160 -124 -196 -202 -36 -77 -58 -188 -41 -205 9 -9 11 -7 7 9 -8 28 14 127 42 190 32 73 123 166 198 202 34 16 57 30 51 30 -5 0 -33 -11 -61 -24z"/>
<path d="M1711 2460 c-141 -52 -233 -169 -256 -324 -4 -26 -14 -50 -21 -53 -8 -3 -14 -17 -14 -32 0 -19 -3 -22 -9 -12 -8 12 -16 13 -48 3 -90 -27 -182 -114 -198 -187 -5 -21 1 -16 19 20 14 28 31 57 38 65 22 27 82 68 113 79 l30 11 -25 -18 c-49 -34 -91 -75 -106 -103 -23 -45 -19 -53 24 -44 20 3 44 8 52 9 9 1 20 5 25 8 7 4 9 -8 7 -32 -7 -73 51 -215 88 -215 25 0 61 80 65 142 l4 58 -8 -50 c-10 -60 -32 -115 -54 -133 -13 -11 -19 -7 -40 30 -53 90 -59 189 -17 279 19 42 20 43 12 9 -14 -69 -8 -202 12 -239 17 -33 19 -34 32 -16 8 10 14 23 14 29 0 5 -6 1 -14 -10 -14 -18 -15 -18 -27 11 -19 46 -21 153 -6 210 14 50 14 50 25 23 15 -36 25 -37 11 -1 -10 28 -3 103 10 103 4 0 13 30 20 68 24 134 97 234 210 289 50 24 67 28 156 28 88 0 106 -4 155 -27 31 -15 76 -44 100 -64 l45 -36 -45 43 c-68 63 -138 91 -240 96 -67 3 -96 -1 -139 -17z"/>
<path d="M2190 2349 c16 -23 40 -67 52 -98 22 -55 23 -65 28 -566 l6 -510 2 490 c1 383 -1 501 -12 540 -19 71 -80 185 -100 185 -3 0 7 -18 24 -41z"/>
<path d="M2157 2282 c15 -28 29 -49 31 -47 5 5 -37 83 -48 90 -6 4 2 -16 17 -43z"/>
<path d="M2197 2200 c3 -14 8 -251 10 -527 4 -477 3 -502 -14 -507 -295 -85 -412 -138 -595 -268 l-97 -69 -76 56 c-76 56 -261 165 -280 165 -5 0 34 -25 87 -54 54 -30 128 -76 164 -103 115 -84 105 -82 155 -41 137 110 366 228 519 268 25 6 69 18 98 27 l53 15 -3 506 c-2 386 -6 513 -16 532 l-13 25 8 -25z"/>
<path d="M1444 2037 c-19 -51 105 -177 176 -177 25 0 25 6 -3 52 -20 33 -60 70 -113 105 -16 11 -15 11 9 3 16 -6 37 -15 48 -20 10 -6 19 -8 19 -5 0 7 -106 55 -121 55 -5 0 -12 -6 -15 -13z"/>
<path d="M1611 1965 c37 -42 58 -77 69 -114 10 -36 12 -36 -64 -16 -63 16 -108 43 -143 84 -12 14 -22 21 -23 14 0 -23 90 -85 151 -104 71 -22 99 -24 99 -6 0 27 -50 114 -81 142 l-34 30 26 -30z"/>
<path d="M1460 1843 c0 -21 -3 -49 -6 -63 -4 -20 -3 -22 5 -10 6 8 11 33 11 55 0 30 3 36 10 25 11 -17 13 -10 4 14 -11 29 -24 17 -24 -21z"/>
<path d="M1282 1853 c-13 -9 -46 -22 -75 -29 -29 -7 -41 -13 -28 -13 34 -1 93 18 122 40 29 23 13 24 -19 2z"/>
<path d="M1940 1581 c0 -11 5 -23 11 -27 8 -4 9 0 4 15 -6 19 -3 21 35 21 46 0 94 -21 104 -45 3 -9 6 -46 6 -82 0 -56 -2 -64 -17 -61 -15 3 -19 15 -21 65 -2 34 -8 65 -15 70 -7 4 -160 6 -341 3 -301 -5 -330 -6 -340 -23 -15 -24 6 -37 62 -37 34 0 42 -3 42 -19 0 -26 19 -38 58 -35 48 2 52 3 52 12 0 4 -23 5 -51 3 -45 -3 -50 -1 -47 15 2 14 13 19 38 20 19 0 41 -4 48 -9 8 -6 12 -6 12 2 0 6 17 11 40 11 37 0 40 -2 40 -29 0 -30 26 -49 43 -32 6 6 2 9 -9 8 -14 -2 -20 6 -22 30 l-3 32 -147 3 c-123 3 -147 5 -147 18 0 13 43 15 318 18 l317 2 0 -43 c0 -24 -3 -47 -7 -50 -10 -11 -33 13 -33 34 0 11 -7 19 -15 19 -8 0 -15 -8 -15 -19 0 -21 -23 -45 -33 -34 -4 3 -7 17 -7 30 0 35 -38 31 -42 -4 -2 -17 -9 -28 -18 -28 -9 0 -16 11 -18 28 -3 26 -5 27 -60 25 l-57 -2 52 -3 c48 -4 52 -6 55 -31 2 -21 8 -27 28 -27 20 0 26 6 28 28 4 33 22 36 22 3 0 -47 60 -39 60 8 1 16 4 13 15 -13 11 -23 20 -31 31 -27 9 3 18 6 20 6 2 0 4 25 4 56 0 49 2 55 15 44 10 -8 15 -30 15 -60 0 -64 7 -80 36 -80 25 0 26 2 26 70 1 71 -3 82 -31 111 -26 25 -37 29 -85 29 -49 0 -56 -3 -56 -19z"/>
<path d="M2045 1361 c-3 -5 -1 -12 5 -16 6 -4 8 -10 5 -15 -16 -26 27 -59 51 -39 23 19 16 47 -16 64 -34 18 -37 18 -45 6z m62 -38 c7 -19 -17 -35 -33 -22 -6 5 -11 20 -11 34 0 21 2 23 19 14 10 -6 22 -17 25 -26z"/>
<path d="M2075 1321 c-6 -11 9 -23 19 -14 9 9 7 23 -3 23 -6 0 -12 -4 -16 -9z"/>
<path d="M266 1220 c5 -5 67 -21 136 -35 69 -14 170 -40 224 -58 l99 -32 5 -60 5 -60 39 -3 c21 -2 42 0 47 5 4 4 -12 6 -36 5 l-44 -4 -3 63 -3 62 -83 28 c-78 26 -189 54 -307 78 -42 8 -34 9 50 5 55 -3 134 -9 175 -14 41 -5 95 -11 120 -14 42 -5 43 -5 10 4 -105 28 -456 52 -434 30z"/>
<path d="M2535 1219 c-136 -14 -135 -17 5 -13 136 4 155 1 67 -11 -27 -4 -47 -9 -44 -11 3 -3 42 0 86 7 155 24 61 47 -114 28z"/>
<path d="M2315 1190 l-30 -8 30 0 c17 0 41 4 55 8 l25 8 -25 0 c-14 0 -38 -4 -55 -8z"/>
<path d="M740 1177 c3 -2 57 -19 120 -35 63 -17 148 -45 189 -62 41 -16 76 -29 78 -27 6 7 -110 53 -212 85 -99 30 -185 50 -175 39z"/>
<path d="M2480 1170 c-14 -5 -63 -20 -110 -35 -94 -30 -233 -85 -227 -91 2 -2 41 12 88 31 46 19 138 50 204 69 66 19 109 35 95 35 -14 -1 -36 -4 -50 -9z"/>
<path d="M830 1050 c0 -5 7 -10 15 -10 9 0 39 -12 68 -27 63 -34 87 -44 87 -38 0 5 -156 85 -165 85 -3 0 -5 -4 -5 -10z"/>
<path d="M2067 1014 c-27 -14 -47 -28 -44 -30 5 -5 64 23 97 45 28 20 -5 10 -53 -15z"/>
<path d="M1913 921 c-98 -66 -246 -212 -309 -306 -51 -75 -56 -85 -50 -85 3 0 27 33 53 73 62 95 218 249 318 316 86 57 91 61 82 61 -3 0 -45 -27 -94 -59z"/>
<path d="M695 950 c-18 -20 -18 -21 2 -41 39 -40 122 -41 164 -3 22 20 23 23 4 48 -13 17 -15 17 -37 2 -28 -20 -58 -20 -84 -1 -25 19 -28 19 -49 -5z m85 -20 c14 0 35 7 47 15 19 13 22 13 34 -1 11 -14 10 -19 -11 -36 -20 -16 -35 -19 -77 -16 -63 5 -87 22 -72 49 9 18 12 18 32 4 12 -8 33 -15 47 -15z"/>
<path d="M1024 957 c155 -100 290 -235 397 -397 39 -61 76 -109 81 -108 5 2 18 19 29 38 l21 35 -24 -27 c-13 -16 -27 -28 -30 -28 -4 0 -37 46 -75 102 -81 124 -219 269 -325 344 -42 30 -81 54 -85 53 -4 0 0 -6 11 -12z"/>
<path d="M632 878 c-19 -19 -14 -34 20 -63 42 -36 71 -46 133 -46 55 -1 92 14 139 56 l30 26 -22 21 c-20 20 -23 21 -40 5 -57 -52 -135 -56 -204 -11 -44 28 -41 27 -56 12z m38 -12 c6 -8 31 -22 55 -32 53 -20 98 -14 150 22 29 20 40 22 51 13 13 -10 12 -15 -7 -35 -33 -35 -82 -54 -138 -54 -78 0 -159 47 -145 84 8 20 18 20 34 2z"/>
<path d="M965 810 c-4 -6 -25 -25 -47 -41 -23 -16 -37 -29 -31 -29 5 0 28 16 50 34 30 26 43 32 52 23 17 -17 14 -27 -21 -59 -18 -17 -26 -27 -18 -23 25 13 60 48 60 60 0 20 -37 48 -45 35z"/>
<path d="M560 789 c-11 -19 -9 -25 11 -41 48 -38 98 -67 126 -73 16 -4 4 5 -27 20 -72 34 -114 73 -98 92 6 7 8 16 5 19 -3 3 -11 -4 -17 -17z"/>
<path d="M605 792 c11 -13 29 -28 40 -34 21 -11 18 -8 -30 32 -29 24 -29 24 -10 2z"/>
<path d="M707 726 c20 -11 125 -11 145 0 11 6 -14 9 -72 9 -54 0 -83 -3 -73 -9z"/>
<path d="M900 695 c-17 -10 -20 -14 -9 -15 9 0 22 7 29 15 15 18 12 18 -20 0z"/>
<path d="M785 670 l-60 -7 55 -1 c30 0 64 3 75 8 22 10 17 10 -70 0z"/>
</g>
<g id="layer103" fill="#f6ce42" stroke="none">
<path d="M727 1522 c-13 -14 -17 -39 -17 -110 0 -82 2 -91 20 -97 34 -11 40 3 40 86 l0 79 31 0 c26 0 30 -3 26 -19 -7 -27 11 -51 37 -51 30 0 49 23 41 50 -4 14 -2 20 9 20 8 0 21 3 30 6 14 5 16 -5 16 -75 0 -69 3 -82 19 -91 40 -21 51 -4 51 82 l0 79 28 -3 c21 -2 28 -9 30 -30 7 -60 103 -81 141 -32 28 36 26 66 -5 98 -25 25 -32 26 -127 26 -87 0 -102 -2 -117 -20 l-18 -20 -5 20 c-5 18 -13 20 -110 20 -88 0 -106 -3 -120 -18z"/>
<path d="M1090 1123 c0 -6 19 -13 43 -16 127 -14 237 -64 314 -143 l52 -54 46 49 c72 77 196 134 323 148 23 3 42 10 42 15 0 18 -177 2 -250 -22 -36 -12 -87 -32 -113 -45 l-48 -25 -47 24 c-26 13 -77 34 -112 45 -73 24 -250 41 -250 24z"/>
</g>
<g id="layer104" fill="#b8e4b6" stroke="none">
<path d="M1592 2473 c-23 -15 -40 -29 -38 -31 3 -2 72 41 85 54 12 11 -9 1 -47 -23z"/>
<path d="M1781 2476 c2 -2 40 -6 84 -8 44 -3 69 -2 55 2 -25 8 -147 13 -139 6z"/>
<path d="M1480 2368 c-29 -44 -32 -53 -6 -23 22 26 32 45 23 45 -1 0 -9 -10 -17 -22z"/>
<path d="M1476 2225 c-3 -9 -6 -24 -5 -33 0 -9 5 -4 10 12 9 32 6 48 -5 21z"/>
<path d="M2202 2150 c0 -19 2 -27 5 -17 2 9 2 25 0 35 -3 9 -5 1 -5 -18z"/>
<path d="M2272 2140 c0 -19 2 -27 5 -17 2 9 2 25 0 35 -3 9 -5 1 -5 -18z"/>
<path d="M1390 2126 c0 -19 3 -37 8 -40 4 -2 6 13 4 35 -5 48 -12 51 -12 5z"/>
<path d="M2212 1643 l-2 -472 -32 -10 c-22 -6 -26 -9 -12 -10 11 -1 28 5 37 12 16 11 17 49 15 482 l-3 470 -3 -472z"/>
<path d="M1378 2043 c7 -3 -13 -21 -47 -43 -39 -26 -68 -54 -86 -85 -15 -25 -25 -48 -23 -50 3 -3 27 2 54 10 27 8 52 11 56 7 4 -4 9 -27 11 -52 4 -41 4 -40 4 10 0 39 8 73 28 118 25 56 29 60 41 45 11 -15 13 -15 13 -3 0 23 -24 50 -45 49 -11 0 -14 -3 -6 -6z"/>
<path d="M1445 2040 c-9 -14 41 -105 70 -128 30 -24 113 -57 121 -49 18 18 -62 107 -133 150 -18 10 -30 23 -27 28 3 5 -2 9 -10 9 -8 0 -17 -4 -21 -10z"/>
<path d="M1221 1955 c-17 -20 -31 -39 -31 -42 0 -4 3 -3 8 3 4 5 20 24 36 42 17 17 27 32 24 32 -3 0 -20 -16 -37 -35z"/>
<path d="M1620 1955 c19 -19 36 -35 39 -35 3 0 -10 16 -29 35 -19 19 -36 35 -39 35 -3 0 10 -16 29 -35z"/>
<path d="M1450 1933 c0 -5 12 -20 28 -34 l27 -24 -25 30 c-14 17 -26 32 -27 34 -2 2 -3 0 -3 -6z"/>
<path d="M1169 1874 c-5 -15 -8 -29 -5 -31 2 -2 8 10 14 26 13 38 5 41 -9 5z"/>
<path d="M1673 1880 c3 -8 7 -25 11 -37 6 -17 2 -22 -16 -26 -20 -4 -20 -4 5 -6 31 -1 33 10 11 54 -8 17 -13 23 -11 15z"/>
<path d="M1382 1850 c0 -19 2 -27 5 -17 2 9 2 25 0 35 -3 9 -5 1 -5 -18z"/>
<path d="M1461 1838 l2 -43 7 35 c4 19 8 29 9 21 0 -8 3 -12 6 -9 8 7 -5 38 -16 38 -5 0 -8 -19 -8 -42z"/>
<path d="M1529 1861 c13 -12 28 -21 34 -21 12 0 11 0 -28 24 l-30 17 24 -20z"/>
<path d="M1493 1790 c0 -25 2 -35 4 -22 2 12 2 32 0 45 -2 12 -4 2 -4 -23z"/>
<path d="M1173 1813 c9 -2 25 -2 35 0 9 3 1 5 -18 5 -19 0 -27 -2 -17 -5z"/>
<path d="M1389 1674 c5 -11 17 -27 26 -34 14 -11 19 -10 33 5 16 18 16 18 -2 5 -16 -13 -21 -11 -43 15 -15 18 -20 21 -14 9z"/>
<path d="M1940 1581 c0 -11 4 -22 9 -25 5 -4 7 3 4 13 -4 18 1 20 48 24 l54 3 -57 2 c-51 2 -58 0 -58 -17z"/>
<path d="M1701 1543 c-320 -3 -342 -6 -340 -42 0 -11 3 -9 9 7 l9 22 315 0 315 0 4 -52 3 -53 2 59 c2 51 4 57 17 46 10 -8 16 -33 17 -69 l2 -56 3 54 c3 40 0 58 -13 72 -9 10 -20 18 -23 17 -3 -2 -147 -4 -320 -5z"/>
<path d="M726 1521 c-14 -15 -16 -35 -13 -112 l3 -94 2 96 c1 58 7 100 14 107 8 8 48 12 116 12 93 0 103 -2 100 -17 -3 -15 -18 -19 -93 -23 l-90 -5 -3 -82 c-2 -53 -7 -83 -15 -86 -7 -2 -5 -3 3 -3 12 1 16 19 18 84 l3 82 29 0 c17 0 30 -5 30 -10 0 -6 8 -5 20 2 16 10 23 10 36 -4 25 -25 11 -51 -26 -46 -16 2 -27 1 -24 -4 8 -13 51 -9 64 7 6 8 9 23 5 35 -4 14 -2 20 9 20 8 0 21 3 30 6 14 5 16 -5 16 -74 0 -45 3 -83 8 -85 4 -3 6 34 4 82 -4 119 1 123 136 119 55 -2 98 0 95 5 -2 4 -50 7 -105 7 -88 0 -103 -2 -118 -20 l-18 -20 -5 20 c-5 18 -13 20 -110 20 -89 0 -106 -3 -121 -19z"/>
<path d="M1238 1474 c3 -16 -3 -37 -17 -57 l-22 -32 25 28 c25 27 35 71 17 81 -4 3 -6 -6 -3 -20z"/>
<path d="M1027 1483 c-4 -3 -7 -39 -7 -79 0 -59 -3 -75 -17 -84 -17 -11 -17 -11 0 -6 10 3 21 6 23 6 2 0 4 37 4 81 l0 81 30 -4 c17 -3 30 -1 30 4 0 10 -54 11 -63 1z"/>
<path d="M1150 1475 c-10 -11 -10 -19 -2 -27 15 -15 44 -2 40 19 -4 23 -22 27 -38 8z"/>
<path d="M1423 1483 c37 -3 47 -8 47 -22 0 -19 19 -41 35 -41 5 0 2 5 -7 11 -10 5 -18 18 -18 28 0 16 10 18 86 19 48 1 89 4 92 7 3 3 -60 4 -139 3 -79 -1 -123 -3 -96 -5z"/>
<path d="M1757 1483 c48 -4 52 -6 55 -31 2 -21 8 -27 28 -27 16 0 25 6 26 18 1 12 1 13 -3 2 -8 -27 -41 -18 -45 13 -3 26 -6 27 -58 28 l-55 1 52 -4z"/>
<path d="M1940 1465 c0 -13 -8 -29 -17 -34 -10 -6 -13 -11 -7 -11 16 0 34 22 35 45 0 20 0 20 9 0 8 -19 9 -19 9 3 1 13 -5 22 -14 22 -9 0 -15 -9 -15 -25z"/>
<path d="M1093 1436 c1 -10 13 -25 27 -34 l25 -14 -21 18 c-12 11 -24 26 -28 34 -4 10 -5 9 -3 -4z"/>
<path d="M1534 1428 c9 -5 23 -5 32 0 12 6 7 9 -16 9 -23 0 -28 -3 -16 -9z"/>
<path d="M263 1224 c7 -7 169 -5 176 2 2 2 -38 4 -89 4 -51 0 -90 -3 -87 -6z"/>
<path d="M2665 1221 c43 -5 53 -8 35 -12 -25 -6 -24 -6 3 -8 19 -1 27 3 25 12 -3 7 -26 12 -64 13 l-59 1 60 -6z"/>
<path d="M493 1213 c9 -2 25 -2 35 0 9 3 1 5 -18 5 -19 0 -27 -2 -17 -5z"/>
<path d="M2513 1213 c9 -2 25 -2 35 0 9 3 1 5 -18 5 -19 0 -27 -2 -17 -5z"/>
<path d="M810 1160 c34 -11 60 -11 35 0 -11 5 -29 8 -40 8 -16 0 -15 -2 5 -8z"/>
<path d="M1090 1120 c0 -12 27 -12 90 -1 44 8 44 9 -22 10 -40 0 -68 -3 -68 -9z"/>
<path d="M1731 1119 c-24 -5 -47 -11 -50 -15 -3 -3 12 -2 34 3 22 4 75 7 118 6 44 -1 77 2 77 7 0 12 -118 11 -179 -1z"/>
<path d="M1250 1113 c14 -2 47 -11 74 -19 27 -8 51 -12 53 -10 7 7 -103 36 -129 35 -22 -2 -22 -2 2 -6z"/>
<path d="M1020 1096 c14 -7 36 -16 50 -20 14 -3 7 3 -15 13 -45 22 -73 27 -35 7z"/>
<path d="M1180 1100 c8 -5 24 -9 35 -9 l20 0 -20 9 c-11 5 -27 9 -35 9 -13 1 -13 0 0 -9z"/>
<path d="M1785 1100 l-20 -9 20 0 c11 0 27 4 35 9 13 9 13 10 0 9 -8 0 -24 -4 -35 -9z"/>
<path d="M1965 1095 c-25 -12 -26 -14 -5 -9 28 7 60 23 45 23 -5 0 -23 -6 -40 -14z"/>
<path d="M2210 1075 c-14 -8 -20 -14 -15 -14 6 0 21 6 35 14 14 8 21 14 15 14 -5 0 -21 -6 -35 -14z"/>
<path d="M734 1025 l1 -50 40 -1 40 -1 -37 4 c-36 4 -37 5 -41 51 l-4 47 1 -50z"/>
<path d="M1281 1076 c10 -9 89 -46 89 -41 0 5 -75 45 -86 45 -4 0 -5 -2 -3 -4z"/>
<path d="M1649 1049 c-31 -17 -78 -52 -104 -79 l-47 -48 -30 34 c-17 19 -44 44 -62 57 -17 12 -3 -6 31 -40 l63 -63 45 49 c25 27 76 65 113 85 37 19 63 35 57 35 -5 0 -35 -13 -66 -30z"/>
<path d="M1440 1056 c0 -3 14 -12 30 -21 27 -14 33 -14 60 0 17 9 30 18 30 20 0 6 -32 -6 -47 -17 -7 -6 -23 -3 -42 7 -17 8 -31 13 -31 11z"/>
<path d="M1141 1046 c10 -9 109 -56 109 -51 0 5 -95 55 -106 55 -4 0 -5 -2 -3 -4z"/>
<path d="M1808 1029 c-21 -11 -38 -22 -38 -24 0 -5 79 32 89 41 12 11 -18 1 -51 -17z"/>
<path d="M2060 1005 c-25 -13 -41 -24 -37 -25 11 0 87 39 87 45 0 7 0 7 -50 -20z"/>
<path d="M1693 964 c-24 -14 -43 -27 -43 -30 0 -6 67 33 85 48 17 15 1 8 -42 -18z"/>
<path d="M695 950 c-15 -16 -16 -22 -5 -35 7 -9 23 -21 34 -26 12 -6 9 0 -9 14 -29 24 -29 26 -13 43 14 14 21 15 30 6 7 -7 16 -12 22 -12 10 0 -24 29 -35 30 -3 0 -14 -9 -24 -20z"/>
<path d="M1460 852 c19 -18 37 -32 40 -32 3 0 19 12 35 26 l30 26 -32 -22 -33 -21 -37 27 -38 26 35 -30z"/>
<path d="M1245 780 c38 -38 72 -70 74 -70 3 0 -26 32 -64 70 -38 39 -72 70 -74 70 -3 0 26 -31 64 -70z"/>
<path d="M1740 773 l-65 -68 68 65 c62 60 72 70 64 70 -1 0 -32 -30 -67 -67z"/>
<path d="M935 783 c-22 -20 -31 -31 -20 -25 11 5 29 20 39 31 15 16 22 18 33 10 18 -16 16 -29 -9 -58 l-23 -26 28 24 c32 28 34 42 10 64 -17 14 -21 12 -58 -20z"/>
<path d="M870 795 c-14 -8 -35 -14 -47 -15 -12 0 -24 -4 -27 -9 -3 -5 8 -6 27 -1 34 7 77 27 77 35 0 7 -2 6 -30 -10z"/>
<path d="M714 728 c14 -9 115 -9 138 0 10 4 -20 7 -66 7 -46 0 -79 -3 -72 -7z"/>
<path d="M1399 595 c5 -11 17 -29 26 -40 l16 -20 -10 20 c-5 11 -17 29 -26 40 l-16 20 10 -20z"/>
<path d="M1575 568 c-16 -24 -22 -38 -14 -31 15 12 53 73 46 73 -2 0 -17 -19 -32 -42z"/>
</g>
<g id="layer105" fill="#f9fefb" stroke="none">
<path d="M1818 2543 c12 -2 30 -2 40 0 9 3 -1 5 -23 4 -22 0 -30 -2 -17 -4z"/>
<path d="M1400 2044 c0 -6 -15 -18 -34 -26 -65 -31 -151 -126 -132 -146 5 -5 51 7 96 25 13 6 13 4 0 -13 -14 -18 -14 -18 3 -5 9 7 17 19 17 25 0 6 14 40 30 75 17 35 28 66 25 69 -3 3 -5 1 -5 -4z"/>
<path d="M1447 2043 c-8 -12 16 -63 48 -101 39 -47 135 -92 135 -64 0 21 -56 81 -108 115 -31 22 -60 44 -63 49 -4 6 -9 6 -12 1z"/>
<path d="M737 1533 c-3 -5 27 -7 66 -5 122 4 136 9 35 10 -53 1 -99 -1 -101 -5z"/>
<path d="M950 1509 c6 -18 10 -66 10 -106 0 -39 3 -74 8 -76 12 -8 -2 191 -16 205 -9 9 -10 4 -2 -23z"/>
<path d="M1058 1533 c23 -2 59 -2 80 0 20 2 1 4 -43 4 -44 0 -61 -2 -37 -4z"/>
<path d="M2053 1460 c0 -30 2 -43 4 -27 2 15 2 39 0 55 -2 15 -4 2 -4 -28z"/>
<path d="M1239 1468 c4 -28 6 -29 9 -9 2 13 0 27 -5 32 -6 6 -7 -3 -4 -23z"/>
<path d="M800 1483 c14 -3 28 -9 31 -15 4 -5 9 -3 12 6 5 13 -1 16 -31 15 -28 -1 -31 -3 -12 -6z"/>
<path d="M892 1464 c11 -22 10 -28 -7 -40 -10 -8 -14 -14 -8 -14 18 0 35 28 28 49 -4 15 -1 21 17 24 17 3 15 5 -9 6 -32 1 -32 0 -21 -25z"/>
<path d="M1024 1477 c-3 -8 -3 -47 -1 -88 l3 -74 2 84 2 83 30 -4 c17 -3 30 -1 30 4 0 14 -60 9 -66 -5z"/>
<path d="M1157 1484 c-4 -4 -7 -16 -7 -26 0 -20 25 -25 36 -7 8 13 -19 43 -29 33z"/>
<path d="M1390 1484 c38 -8 90 -9 90 -2 0 4 -24 7 -52 7 -29 -1 -46 -3 -38 -5z"/>
<path d="M1593 1483 c15 -2 37 -2 50 0 12 2 0 4 -28 4 -27 0 -38 -2 -22 -4z"/>
<path d="M1733 1483 c15 -2 39 -2 55 0 15 2 2 4 -28 4 -30 0 -43 -2 -27 -4z"/>
<path d="M762 1398 c-2 -63 -5 -77 -19 -81 -17 -4 -17 -5 0 -6 24 -1 29 15 24 95 l-3 69 -2 -77z"/>
<path d="M2633 1223 c15 -2 37 -2 50 0 12 2 0 4 -28 4 -27 0 -38 -2 -22 -4z"/>
<path d="M1090 1120 c0 -5 10 -10 23 -10 18 0 19 2 7 10 -19 13 -30 13 -30 0z"/>
<path d="M1875 1120 c-18 -8 -17 -9 8 -9 15 -1 27 4 27 9 0 12 -8 12 -35 0z"/>
<path d="M1515 1039 c-4 -6 -14 -8 -24 -4 -12 5 -13 3 -4 -6 9 -9 17 -8 34 5 13 9 18 16 12 16 -7 0 -15 -5 -18 -11z"/>
<path d="M1395 1014 c6 -5 23 -20 40 -34 29 -24 29 -24 10 -2 -11 13 -29 28 -40 34 -11 6 -15 6 -10 2z"/>
<path d="M758 973 c12 -2 32 -2 45 0 12 2 2 4 -23 4 -25 0 -35 -2 -22 -4z"/>
</g>


</svg>