<!DOCTYPE svg PUBLIC "-//W3C//DTD SVG 20010904//EN" "http://www.w3.org/TR/2001/REC-SVG-20010904/DTD/svg10.dtd">
<svg version="1.0" xmlns="http://www.w3.org/2000/svg" width="512px" height="512px" viewBox="0 0 5120 5120" preserveAspectRatio="xMidYMid meet">
<g id="layer101" fill="#000000" stroke="none">
 <path d="M1515 4563 c-226 -19 -512 -81 -739 -160 -251 -87 -603 -256 -645 -310 -30 -37 -27 -86 8 -125 l29 -32 203 2 c333 5 580 -44 839 -165 162 -75 160 -70 41 -109 -297 -97 -537 -300 -676 -571 -43 -83 -46 -133 -11 -168 35 -35 67 -39 146 -20 38 9 74 15 80 13 6 -2 -24 -28 -67 -58 -100 -71 -235 -207 -296 -298 -102 -153 -159 -309 -177 -488 -9 -85 -8 -109 4 -137 30 -72 93 -86 166 -36 25 16 58 37 74 46 l29 15 -26 -43 c-89 -144 -146 -284 -172 -422 -17 -92 -20 -267 -5 -353 29 -164 121 -374 178 -407 60 -35 89 -20 190 96 389 446 867 726 1442 841 69 14 157 28 196 32 l71 7 6 -118 c17 -291 107 -528 266 -697 89 -95 163 -149 289 -212 413 -207 811 -176 1165 90 l88 66 72 -22 c124 -38 258 -90 371 -146 117 -58 132 -62 176 -39 57 29 64 78 25 180 -22 59 -79 164 -121 222 -15 22 -15 23 2 23 11 0 46 -12 79 -25 64 -26 114 -32 146 -15 29 16 52 68 45 104 -14 71 -220 311 -384 445 l-89 73 -1 172 c-1 276 -39 501 -132 776 -145 432 -383 812 -720 1151 -237 239 -464 402 -765 549 -317 156 -606 239 -940 270 -102 9 -367 11 -460 3z m493 -214 c460 -49 915 -241 1302 -547 115 -91 341 -316 434 -432 396 -497 605 -1086 582 -1643 -4 -101 -2 -165 4 -177 6 -11 45 -46 88 -79 97 -75 179 -147 172 -154 -3 -2 -39 1 -80 9 -144 25 -209 15 -236 -37 -31 -61 -7 -117 69 -155 51 -26 187 -152 187 -173 0 -6 -20 -3 -52 10 -87 34 -259 79 -304 79 -37 0 -51 -7 -101 -51 -184 -161 -375 -240 -583 -240 -162 0 -270 27 -435 107 -174 85 -273 181 -350 339 -61 125 -87 232 -92 385 -3 69 -1 150 5 180 13 72 -1 117 -47 144 -33 19 -37 19 -200 3 -468 -47 -895 -195 -1263 -440 -153 -102 -259 -189 -411 -336 -70 -68 -129 -122 -132 -119 -3 2 -15 40 -26 84 -17 61 -22 108 -22 204 0 148 21 238 83 369 68 142 112 195 289 352 31 27 41 43 41 67 0 45 -17 76 -53 98 -46 27 -233 25 -330 -3 -79 -24 -79 -24 -42 74 56 148 173 296 320 406 98 73 256 152 336 168 71 14 109 50 109 104 0 93 -176 185 -352 185 -38 0 -68 4 -68 10 0 18 134 152 195 195 152 108 379 185 545 185 91 0 140 35 140 99 0 46 -17 72 -78 122 -229 187 -568 332 -885 379 -48 7 -87 16 -87 20 0 10 174 74 311 114 136 40 291 72 432 91 126 16 455 19 585 4z"/>
 </g>

</svg>