<!DOCTYPE svg PUBLIC "-//W3C//DTD SVG 20010904//EN" "http://www.w3.org/TR/2001/REC-SVG-20010904/DTD/svg10.dtd">
<svg version="1.0" xmlns="http://www.w3.org/2000/svg" width="210px" height="210px" viewBox="0 0 2100 2100" preserveAspectRatio="xMidYMid meet">
<g id="layer101" fill="#000000" stroke="none">
 <path d="M526 2061 c-16 -11 -37 -33 -48 -49 -18 -28 -18 -66 -16 -968 l3 -939 25 -33 c45 -61 71 -63 577 -60 494 3 479 1 528 68 l25 34 0 925 c0 1033 4 969 -69 1018 l-34 23 -481 0 c-456 0 -482 -1 -510 -19z m1019 -56 c24 -23 25 -28 25 -178 0 -152 0 -155 -22 -161 -35 -9 -1011 -7 -1026 3 -11 6 -13 43 -10 165 3 154 3 158 28 176 24 19 47 20 503 20 l478 0 24 -25z m20 -1060 l0 -670 -527 -3 -528 -2 0 668 c0 368 3 672 7 675 3 4 241 6 527 5 l521 -3 0 -670z m5 -765 c0 -56 -17 -86 -59 -104 -32 -15 -88 -16 -494 -14 l-459 3 -24 28 c-18 22 -24 40 -24 78 l0 49 530 0 530 0 0 -40z"/>
 <path d="M981 1963 c-82 -42 -94 -142 -24 -207 58 -54 145 -42 190 25 20 31 24 47 20 75 -16 94 -107 147 -186 107z m116 -59 c21 -21 24 -32 19 -62 -11 -68 -84 -95 -131 -47 -29 28 -31 54 -10 95 25 48 81 55 122 14z"/>
 <path d="M884 155 c-11 -28 7 -35 87 -35 64 0 81 3 86 16 9 25 -16 34 -95 34 -54 0 -74 -4 -78 -15z"/>
 <path d="M1124 156 c-9 -24 5 -36 42 -36 31 0 35 3 32 23 -2 17 -11 23 -36 25 -22 2 -34 -2 -38 -12z"/>
 <path d="M91 691 c-65 -81 -93 -188 -79 -295 13 -100 85 -226 129 -226 27 0 24 20 -10 60 -58 71 -66 97 -66 210 0 114 15 163 71 229 26 32 27 61 0 61 -8 0 -28 -18 -45 -39z"/>
 <path d="M1920 714 c0 -9 14 -34 31 -55 93 -118 93 -300 0 -418 -35 -44 -40 -71 -13 -71 44 0 118 123 130 218 14 104 -18 221 -84 307 -27 36 -64 47 -64 19z"/>
 <path d="M1770 642 c0 -10 9 -27 21 -38 24 -22 43 -63 53 -117 9 -47 -13 -128 -49 -181 -31 -46 -31 -56 0 -56 19 0 33 11 55 46 61 97 60 217 -3 311 -34 52 -77 71 -77 35z"/>
 <path d="M244 622 c-65 -86 -79 -207 -32 -297 27 -52 62 -95 78 -95 22 0 19 24 -8 66 -66 99 -64 214 7 303 10 14 17 31 14 38 -8 21 -36 14 -59 -15z"/>
 </g>

</svg>