<!DOCTYPE svg PUBLIC "-//W3C//DTD SVG 20010904//EN" "http://www.w3.org/TR/2001/REC-SVG-20010904/DTD/svg10.dtd">
<svg version="1.0" xmlns="http://www.w3.org/2000/svg" width="141px" height="132px" viewBox="0 0 1410 1320" preserveAspectRatio="xMidYMid meet">
<g id="layer101" fill="#1f1c1c" stroke="none">
 <path d="M0 907 c0 -308 3 -416 12 -425 7 -7 34 -12 62 -12 47 0 52 -3 96 -50 46 -49 47 -50 107 -50 l60 0 184 -185 184 -185 45 0 45 0 208 208 c164 164 207 213 207 233 0 15 7 43 15 63 l15 36 69 0 c38 0 76 3 85 6 21 8 21 81 1 149 -15 47 -35 122 -125 464 -21 79 -45 148 -52 152 -7 5 -284 9 -615 9 l-603 0 0 -413z m1145 -12 l0 -350 -280 -5 c-154 -3 -281 -7 -281 -8 -1 -1 -13 -20 -28 -42 l-26 -40 -134 0 -135 0 -36 45 c-35 42 -40 44 -93 47 l-57 3 -3 353 -2 352 537 -2 538 -3 0 -350z m138 -117 l44 -158 -48 0 -49 0 1 168 c0 92 2 163 4 157 3 -5 24 -81 48 -167z m-613 -311 c0 -2 -16 -19 -37 -38 l-36 -34 29 37 c24 32 44 47 44 35z m122 -100 c-79 -80 -102 -108 -102 -130 0 -25 3 -27 37 -27 35 0 47 9 155 117 65 65 118 123 118 130 0 9 17 13 55 13 38 0 55 -4 55 -13 0 -7 -80 -92 -178 -190 l-177 -177 -138 136 c-76 75 -137 137 -135 138 2 2 27 6 56 9 l52 6 0 -34 c0 -32 3 -35 28 -35 21 0 46 18 107 80 76 76 82 80 125 80 l45 0 -103 -103z"/>
 </g>

</svg>