<!DOCTYPE svg PUBLIC "-//W3C//DTD SVG 20010904//EN" "http://www.w3.org/TR/2001/REC-SVG-20010904/DTD/svg10.dtd">
<svg version="1.0" xmlns="http://www.w3.org/2000/svg" width="153px" height="187px" viewBox="0 0 1530 1870" preserveAspectRatio="xMidYMid meet">
<g id="layer101" fill="#000000" stroke="none">
 <path d="M841 1823 c-6 -27 -17 -82 -26 -124 -13 -70 -24 -117 -58 -247 l-11 -43 -38 138 c-21 76 -48 175 -60 221 -21 75 -25 82 -48 82 -27 0 -37 -12 -77 -92 -26 -51 -38 -64 -48 -48 -10 17 -110 60 -138 60 -22 0 -27 -5 -27 -26 0 -26 41 -193 81 -326 22 -76 19 -89 -30 -131 -21 -17 -52 -29 -99 -37 -82 -13 -129 -40 -138 -76 -4 -14 -4 -70 -1 -123 3 -59 1 -105 -6 -117 -5 -10 -34 -45 -63 -76 -54 -56 -54 -57 -54 -120 0 -71 7 -84 81 -164 l47 -51 -5 -114 c-8 -154 -5 -157 193 -195 35 -6 69 -40 102 -103 62 -115 125 -137 247 -85 90 39 111 40 185 5 121 -58 202 -37 245 61 41 94 74 119 172 134 67 9 109 28 124 55 8 16 10 55 6 132 l-6 110 48 51 c85 92 91 103 91 168 0 59 -1 60 -59 121 -32 34 -63 71 -69 83 -7 12 -8 56 -5 116 3 52 3 107 -1 122 -8 33 -47 53 -136 67 -83 14 -119 39 -152 102 l-20 40 27 136 c15 75 31 141 35 146 12 16 32 124 25 135 -12 20 -61 9 -119 -26 -32 -19 -62 -31 -65 -26 -3 5 -21 32 -40 60 -29 45 -37 52 -66 52 -31 0 -34 -3 -44 -47z m145 -143 c19 0 52 11 74 25 22 14 40 23 40 20 0 -17 -34 -167 -47 -207 l-15 -46 -51 5 c-44 4 -61 0 -109 -25 -40 -20 -58 -25 -58 -16 0 25 33 179 40 189 4 6 13 40 21 78 l13 67 29 -45 c25 -39 34 -45 63 -45z m-376 -25 c27 -100 49 -188 50 -197 0 -4 -16 0 -35 8 -60 25 -122 15 -152 -25 -14 -19 -10 -27 -52 119 -17 57 -28 106 -26 108 2 2 17 -4 34 -12 16 -9 45 -16 64 -16 28 0 38 6 60 41 15 22 27 46 27 52 0 23 9 -1 30 -78z m27 -270 c46 -20 98 -35 120 -35 34 0 130 27 143 40 3 3 20 10 37 17 43 15 60 1 121 -102 51 -87 52 -88 207 -124 27 -7 55 -17 62 -23 9 -7 13 -45 13 -133 l0 -122 58 -64 c92 -100 92 -100 34 -162 -77 -83 -92 -116 -92 -203 0 -42 5 -84 10 -95 23 -43 -40 -89 -142 -103 -66 -10 -104 -40 -158 -125 -25 -41 -53 -79 -62 -85 -13 -8 -36 -2 -95 22 -99 41 -163 42 -248 6 -92 -40 -98 -40 -129 -3 -15 17 -38 53 -51 80 -33 64 -76 95 -155 110 -69 13 -114 31 -127 51 -4 7 -6 63 -5 125 4 127 3 130 -74 214 -64 69 -64 68 24 163 l54 59 -3 120 -4 119 28 24 c15 13 38 26 50 28 161 31 169 36 221 135 28 55 66 101 81 101 1 0 38 -16 82 -35z"/>
 <path d="M657 992 c-10 -10 -17 -22 -17 -26 0 -4 -5 -12 -10 -19 -64 -75 -120 -165 -120 -192 0 -31 34 -75 58 -75 6 0 37 33 68 74 l57 74 26 -32 c14 -17 28 -33 31 -36 3 -3 57 -74 120 -157 63 -84 118 -153 123 -153 15 0 67 64 67 83 0 10 -5 28 -12 40 -14 26 -127 175 -177 234 -20 22 -62 78 -94 122 -62 86 -87 99 -120 63z"/>
 </g>

</svg>