<!DOCTYPE svg PUBLIC "-//W3C//DTD SVG 20010904//EN" "http://www.w3.org/TR/2001/REC-SVG-20010904/DTD/svg10.dtd">
<svg version="1.0" xmlns="http://www.w3.org/2000/svg" width="211px" height="203px" viewBox="0 0 2110 2030" preserveAspectRatio="xMidYMid meet">
<g id="layer101" fill="#242223" stroke="none">
 <path d="M29 2023 c-21 -5 -31 -41 -18 -65 9 -17 36 -18 568 -18 l558 0 6 -77 c3 -43 5 -145 5 -228 0 -139 4 -169 32 -230 5 -11 21 -49 35 -85 15 -36 33 -78 40 -95 7 -16 28 -66 45 -110 18 -44 43 -103 56 -132 13 -28 24 -54 24 -57 0 -2 9 -25 20 -50 11 -26 19 -49 19 -51 0 -3 7 -18 14 -33 15 -28 31 -66 88 -207 17 -44 43 -105 56 -135 41 -93 56 -130 79 -193 9 -26 21 -50 25 -53 5 -3 9 -13 9 -22 0 -10 16 -41 35 -69 106 -158 339 -107 361 79 7 60 -1 94 -47 196 -16 34 -29 65 -29 67 0 5 -82 203 -100 240 -5 11 -19 45 -31 75 -11 30 -27 69 -34 85 -8 17 -82 193 -164 393 -83 200 -155 371 -160 380 -5 9 -70 77 -144 151 -83 82 -133 139 -130 147 4 12 72 14 387 14 284 0 385 3 394 12 17 17 15 44 -4 62 -14 15 -115 16 -997 15 -540 -1 -989 -3 -998 -6z m1330 -309 c45 -46 52 -58 40 -68 -13 -12 -167 -76 -182 -76 -4 0 -7 38 -7 85 l0 85 33 14 c50 22 59 20 116 -40z m150 -194 c17 -39 31 -75 31 -81 0 -6 9 -28 19 -48 11 -20 26 -54 34 -76 8 -22 26 -65 39 -95 32 -71 92 -217 103 -250 1 -3 8 -18 15 -35 7 -16 14 -32 14 -35 1 -3 4 -9 7 -15 8 -11 73 -167 74 -175 0 -3 6 -14 12 -25 5 -11 16 -38 23 -60 7 -22 21 -56 31 -75 11 -19 19 -39 19 -44 0 -7 20 -57 67 -164 8 -19 13 -35 11 -37 -20 -17 -227 -105 -249 -105 -11 0 -31 34 -64 113 -26 61 -53 126 -61 142 -7 17 -38 93 -70 170 -31 77 -64 158 -74 180 -10 22 -62 146 -115 275 -53 129 -112 270 -131 314 -39 88 -37 97 24 117 20 6 42 15 47 19 6 3 33 15 60 25 28 10 54 22 60 26 24 23 43 7 74 -61z m522 -1292 c1 -7 1 -17 0 -21 -1 -4 -2 -16 -4 -26 -9 -57 -101 -118 -163 -107 -31 6 -84 40 -84 55 0 3 14 15 30 24 17 10 30 16 30 13 0 -3 37 13 83 34 88 42 106 47 108 28z"/>
 </g>

</svg>