<!DOCTYPE svg PUBLIC "-//W3C//DTD SVG 20010904//EN" "http://www.w3.org/TR/2001/REC-SVG-20010904/DTD/svg10.dtd">
<svg version="1.0" xmlns="http://www.w3.org/2000/svg" width="233px" height="235px" viewBox="0 0 2330 2350" preserveAspectRatio="xMidYMid meet">
<g id="layer101" fill="#000000" stroke="none">
 <path d="M955 2335 c-38 -19 -75 -73 -75 -109 0 -33 33 -92 61 -106 16 -9 19 -25 21 -128 l3 -117 33 -3 c55 -5 62 8 62 125 l0 104 35 36 c30 31 35 43 35 85 0 41 -5 54 -33 84 -38 42 -94 54 -142 29z m75 -111 c0 -20 -30 -30 -40 -13 -11 17 7 40 26 32 8 -3 14 -12 14 -19z"/>
 <path d="M1251 2332 c-78 -43 -90 -137 -25 -198 l34 -32 2 -374 3 -373 40 0 40 0 3 377 c2 363 3 377 22 383 29 9 60 67 60 114 0 89 -101 147 -179 103z m77 -105 c4 -22 -27 -35 -38 -16 -10 15 7 42 24 36 6 -2 12 -11 14 -20z"/>
 <path d="M314 2181 c-44 -27 -64 -59 -64 -104 0 -83 56 -133 139 -124 34 4 52 13 73 36 27 30 30 31 117 31 81 0 93 -3 118 -24 l28 -24 5 -214 5 -213 45 0 45 0 3 205 c3 229 -2 262 -51 310 -52 52 -83 63 -191 68 -93 5 -100 6 -125 33 -35 39 -103 48 -147 20z m74 -93 c19 -19 14 -28 -13 -28 -24 0 -34 18 -18 33 9 10 17 9 31 -5z"/>
 <path d="M1885 2182 c-16 -11 -36 -26 -44 -35 -10 -13 -31 -17 -90 -17 -102 -1 -144 -12 -190 -51 -66 -57 -81 -98 -81 -225 0 -118 6 -134 50 -134 45 0 48 9 52 133 3 116 4 119 31 143 25 22 37 24 119 24 89 0 91 0 129 -35 54 -48 109 -49 163 -2 31 26 39 40 42 77 6 54 -9 86 -55 117 -41 28 -86 29 -126 5z m73 -105 c2 -10 -3 -17 -12 -17 -10 0 -16 9 -16 21 0 24 23 21 28 -4z"/>
 <path d="M973 1823 c-10 -3 -13 -73 -13 -299 l0 -294 -60 0 -60 0 0 118 c0 64 -4 123 -9 130 -5 9 -24 12 -52 10 l-44 -3 -3 -127 -3 -127 -232 -3 c-214 -3 -236 -5 -289 -26 -73 -29 -149 -98 -182 -164 -23 -47 -26 -63 -26 -162 0 -86 5 -120 19 -152 23 -50 72 -107 115 -134 31 -18 34 -25 40 -87 22 -218 230 -380 441 -345 36 6 79 18 97 26 43 22 51 20 76 -13 29 -40 136 -114 192 -133 95 -34 171 -41 256 -25 137 26 242 89 323 194 30 39 34 41 64 32 82 -23 222 -4 305 43 39 22 142 117 142 130 0 5 11 25 24 46 13 20 29 53 35 72 8 24 26 45 57 65 54 36 107 110 130 183 51 162 -41 356 -201 422 -57 23 -72 25 -297 28 l-238 4 -2 221 -3 222 -33 3 c-61 6 -62 2 -62 -234 l0 -214 -59 0 -60 0 -3 33 c-3 31 -5 32 -48 32 -43 0 -45 -1 -48 -32 l-3 -33 -100 0 -99 0 0 288 c0 211 -3 291 -12 300 -12 12 -52 15 -75 5z m1076 -709 c63 -18 136 -81 162 -139 41 -89 19 -196 -56 -270 -72 -72 -173 -96 -258 -60 -20 8 -42 12 -50 9 -19 -7 -40 -47 -35 -69 5 -25 83 -54 150 -54 53 -1 57 -2 50 -21 -13 -36 -112 -130 -160 -152 -70 -31 -163 -35 -240 -9 -35 12 -67 19 -73 16 -5 -4 -21 -29 -35 -56 -72 -143 -261 -231 -417 -195 -34 8 -75 21 -92 28 -43 19 -128 83 -143 108 -12 19 -11 25 7 44 38 40 80 141 83 197 l3 54 -50 0 -50 0 -5 -45 c-16 -138 -135 -243 -275 -243 -80 -1 -128 16 -191 68 -64 53 -94 124 -94 225 l0 81 -37 15 c-50 21 -110 79 -134 131 -49 107 -2 259 96 311 78 41 79 41 951 41 735 1 847 -1 893 -15z"/>
 <path d="M278 1066 c-85 -30 -138 -94 -138 -166 l0 -40 40 0 c38 0 41 3 62 46 17 36 30 50 65 65 38 16 43 22 43 52 0 29 -15 58 -29 57 -4 -1 -23 -7 -43 -14z"/>
 <path d="M1982 1068 c-7 -7 -12 -27 -12 -46 0 -28 5 -35 34 -47 68 -28 96 -102 60 -153 -8 -12 -32 -30 -52 -40 -34 -16 -37 -21 -37 -57 l0 -40 42 2 c47 2 90 29 130 82 31 41 42 119 23 175 -13 40 -102 126 -130 126 -10 0 -24 2 -32 5 -7 3 -19 0 -26 -7z"/>
 <path d="M1410 1033 c-77 -26 -122 -68 -141 -133 -17 -57 -8 -72 43 -68 34 2 44 7 46 23 2 11 16 32 30 48 21 22 34 27 72 27 51 0 65 -10 94 -67 14 -29 22 -33 56 -33 21 0 42 5 45 10 4 6 -1 33 -10 60 -32 97 -148 163 -235 133z"/>
 <path d="M482 848 c-6 -6 -12 -20 -12 -30 0 -45 67 -135 122 -164 60 -31 175 -7 225 47 31 34 56 97 48 126 -5 21 -10 24 -47 21 -32 -2 -43 -8 -48 -23 -12 -48 -57 -85 -104 -85 -33 0 -84 45 -94 83 -7 27 -13 32 -43 35 -19 2 -40 -3 -47 -10z"/>
 <path d="M1310 666 c-20 -22 -22 -29 -12 -51 21 -46 15 -99 -14 -129 -30 -29 -67 -33 -121 -14 -31 11 -35 10 -60 -14 -31 -31 -26 -50 19 -78 78 -47 163 -34 232 37 69 70 81 144 38 233 -21 44 -50 49 -82 16z"/>
 <path d="M324 535 c-13 -34 21 -109 72 -161 51 -51 81 -64 146 -64 28 0 29 1 26 47 -3 46 -3 46 -48 57 -48 12 -86 55 -97 109 -5 25 -10 27 -50 27 -30 0 -45 -5 -49 -15z"/>
 </g>

</svg>